  0
SECTION
  2
HEADER
  9
$ACADVER
  1
AC1009
  9
$DWGCODEPAGE
  3
ANSI_1252
  9
$LASTSAVEDBY
  1
unknown
  9
$INSBASE
 10
0.0
 20
0.0
 30
0.0
  9
$EXTMIN
 10
1e+20
 20
1e+20
 30
1e+20
  9
$EXTMAX
 10
-1e+20
 20
-1e+20
 30
-1e+20
  9
$LIMMIN
 10
0.0
 20
0.0
  9
$LIMMAX
 10
12.0
 20
9.0
  9
$ORTHOMODE
 70
0
  9
$REGENMODE
 70
1
  9
$FILLMODE
 70
1
  9
$QTEXTMODE
 70
0
  9
$MIRRTEXT
 70
0
  9
$DRAGMODE
 70
2
  9
$LTSCALE
 40
1.0
  9
$OSMODE
 70
37
  9
$ATTMODE
 70
1
  9
$TEXTSIZE
 40
0.2
  9
$TRACEWID
 40
0.05
  9
$TEXTSTYLE
  7
NOTES
  9
$CLAYER
  8
0
  9
$CELTYPE
  6
BYLAYER
  9
$CECOLOR
 62
256
  9
$DIMSCALE
 40
1.0
  9
$DIMASZ
 40
3.0
  9
$DIMEXO
 40
1.5
  9
$DIMDLI
 40
6.0
  9
$DIMRND
 40
0.0
  9
$DIMDLE
 40
0.0
  9
$DIMEXE
 40
3.0
  9
$DIMTP
 40
0.0
  9
$DIMTM
 40
0.0
  9
$DIMTXT
 40
3.0
  9
$DIMCEN
 40
3.0
  9
$DIMTSZ
 40
0.0
  9
$DIMTOL
 70
0
  9
$DIMLIM
 70
0
  9
$DIMTIH
 70
0
  9
$DIMTOH
 70
0
  9
$DIMSE1
 70
0
  9
$DIMSE2
 70
0
  9
$DIMTAD
 70
1
  9
$DIMZIN
 70
3
  9
$DIMBLK
  1

  9
$DIMASO
 70
1
  9
$DIMSHO
 70
1
  9
$DIMPOST
  1

  9
$DIMAPOST
  1

  9
$DIMALT
 70
0
  9
$DIMALTD
 70
2
  9
$DIMALTF
 40
25.4
  9
$DIMLFAC
 40
1.0
  9
$DIMTOFL
 70
0
  9
$DIMTVP
 40
0.0
  9
$DIMTIX
 70
0
  9
$DIMSOXD
 70
0
  9
$DIMSAH
 70
0
  9
$DIMBLK1
  1

  9
$DIMBLK2
  1

  9
$DIMSTYLE
  2
CIVIL-METRIC
  9
$DIMCLRD
 70
0
  9
$DIMCLRE
 70
0
  9
$DIMCLRT
 70
0
  9
$DIMTFAC
 40
1.0
  9
$DIMGAP
 40
2.0
  9
$LUNITS
 70
2
  9
$LUPREC
 70
4
  9
$SKETCHINC
 40
0.1
  9
$FILLETRAD
 40
0.0
  9
$AUNITS
 70
4
  9
$AUPREC
 70
5
  9
$MENU
  1
.
  9
$ELEVATION
 40
0.0
  9
$PELEVATION
 40
0.0
  9
$THICKNESS
 40
0.0
  9
$LIMCHECK
 70
0
  9
$BLIPMODE
 70
0
  9
$CHAMFERA
 40
0.0
  9
$CHAMFERB
 40
0.0
  9
$SKPOLY
 70
0
  9
$TDCREATE
 40
2457275.5365162035
  9
$TDUPDATE
 40
2457275.5365277776
  9
$TDINDWG
 40
0.0
  9
$TDUSRTIMER
 40
0.0
  9
$USRTIMER
 70
1
  9
$ANGBASE
 50
0.0
  9
$ANGDIR
 70
0
  9
$PDMODE
 70
0
  9
$PDSIZE
 40
0.0
  9
$PLINEWID
 40
0.0
  9
$COORDS
 70
1
  9
$SPLFRAME
 70
0
  9
$SPLINETYPE
 70
6
  9
$SPLINESEGS
 70
8
  9
$ATTDIA
 70
0
  9
$ATTREQ
 70
1
  9
$HANDLING
 70
1
  9
$HANDSEED
  5
758
  9
$SURFTAB1
 70
6
  9
$SURFTAB2
 70
6
  9
$SURFTYPE
 70
6
  9
$SURFU
 70
6
  9
$SURFV
 70
6
  9
$UCSNAME
  2

  9
$UCSORG
 10
0.0
 20
0.0
 30
0.0
  9
$UCSXDIR
 10
1.0
 20
0.0
 30
0.0
  9
$UCSYDIR
 10
0.0
 20
1.0
 30
0.0
  9
$PUCSNAME
  2

  9
$PUCSORG
 10
0.0
 20
0.0
 30
0.0
  9
$PUCSXDIR
 10
1.0
 20
0.0
 30
0.0
  9
$PUCSYDIR
 10
0.0
 20
1.0
 30
0.0
  9
$USERI1
 70
0
  9
$USERI2
 70
0
  9
$USERI3
 70
0
  9
$USERI4
 70
0
  9
$USERI5
 70
0
  9
$USERR1
 40
0.0
  9
$USERR2
 40
0.0
  9
$USERR3
 40
0.0
  9
$USERR4
 40
0.0
  9
$USERR5
 40
0.0
  9
$WORLDVIEW
 70
1
  9
$SHADEDGE
 70
3
  9
$SHADEDIF
 70
70
  9
$TILEMODE
 70
1
  9
$MAXACTVP
 70
64
  9
$PLIMCHECK
 70
0
  9
$PEXTMIN
 10
0.62886676639706
 20
0.7999999523162842
 30
0.0
  9
$PEXTMAX
 10
9.028866384927335
 20
7.199999570846558
 30
0.0
  9
$PLIMMIN
 10
-0.7005418191744587
 20
-0.2281003861915408
  9
$PLIMMAX
 10
10.29945794052965
 20
8.27189937351257
  9
$UNITMODE
 70
0
  9
$VISRETAIN
 70
1
  9
$PLINEGEN
 70
0
  9
$PSLTSCALE
 70
1
  0
ENDSEC
  0
SECTION
  2
TABLES
  0
TABLE
  2
VPORT
  5
430
 70
1
  0
VPORT
  5
40E
  2
*ACTIVE
 70
0
 10
0.0
 20
0.0
 11
1.0
 21
1.0
 12
68.7397286580374
 22
49.8327539171525
 13
0.0
 23
0.0
 14
0.5
 24
0.5
 15
0.5
 25
0.5
 16
0.0
 26
0.0
 36
1.0
 17
0.0
 27
0.0
 37
0.0
 40
69.03946035988814
 41
1.341176470588235
 42
50.0
 43
0.0
 44
0.0
 50
0.0
 51
0.0
 71
0
 72
1000
 73
1
 74
3
 75
0
 76
0
 77
0
 78
0
  0
ENDTAB
  0
TABLE
  2
LTYPE
  5
431
 70
5
  0
LTYPE
  5
40F
  2
CONTINUOUS
 70
0
  3
Solid line
 72
65
 73
0
 40
0.0
  0
LTYPE
  5
410
  2
CENTER
 70
0
  3
Center ____ _ ____ _ ____ _ ____ _ ____ _ ____
 72
65
 73
4
 40
2.0
 49
1.25
 49
-0.25
 49
0.25
 49
-0.25
  0
LTYPE
  5
411
  2
DASHED
 70
0
  3
Dashed __ __ __ __ __ __ __ __ __ __ __ __ __ _
 72
65
 73
2
 40
0.75
 49
0.5
 49
-0.25
  0
LTYPE
  5
412
  2
PHANTOM
 70
0
  3
Phantom ______  __  __  ______  __  __  ______
 72
65
 73
6
 40
2.5
 49
1.25
 49
-0.25
 49
0.25
 49
-0.25
 49
0.25
 49
-0.25
  0
LTYPE
  5
413
  2
HIDDEN
 70
0
  3
Hidden __ __ __ __ __ __ __ __ __ __ __ __ __ __
 72
65
 73
2
 40
9.524999999999999
 49
6.349999999999999
 49
-3.174999999999999
  0
ENDTAB
  0
TABLE
  2
LAYER
  5
432
 70
1
  0
LAYER
  5
43B
  2
CF
 70
0
 62
7
  6
CONTINUOUS
  0
ENDTAB
  0
TABLE
  2
STYLE
  5
433
 70
5
  0
STYLE
  5
417
  2
STANDARD
 70
0
 40
0.0
 41
1.0
 50
0.0
 71
0
 42
0.2
  3
txt
  4

  0
STYLE
  5
418
  2
ANNOTATIVE
 70
0
 40
0.0
 41
1.0
 50
0.0
 71
0
 42
0.2
  3
txt
  4

  0
STYLE
  5
419
  2
NOTES
 70
0
 40
3.0
 41
1.0
 50
0.0
 71
0
 42
0.2
  3
txt
  4

  0
STYLE
  5
41A
  2
TITLES
 70
0
 40
6.0
 41
1.0
 50
0.0
 71
0
 42
0.2
  3
txt
  4

  0
STYLE
  5
41B
  2

 70
1
 40
0.0
 41
1.0
 50
0.0
 71
0
 42
0.2
  3
ltypeshp.shx
  4

  0
ENDTAB
  0
TABLE
  2
VIEW
  5
434
 70
0
  0
ENDTAB
  0
TABLE
  2
UCS
  5
435
 70
0
  0
ENDTAB
  0
TABLE
  2
APPID
  5
436
 70
10
  0
APPID
  5
41C
  2
ACAD
 70
0
  0
APPID
  5
41D
  2
ACADANNOPO
 70
0
  0
APPID
  5
41E
  2
ACADANNOTATIVE
 70
0
  0
APPID
  5
41F
  2
ACAD_DSTYLE_DIMJAG
 70
0
  0
APPID
  5
420
  2
ACAD_DSTYLE_DIMTALN
 70
0
  0
APPID
  5
421
  2
ACAD_MLEADERVER
 70
0
  0
APPID
  5
422
  2
ACAECLAYERSTANDARD
 70
0
  0
APPID
  5
423
  2
ACAD_EXEMPT_FROM_CAD_STANDARDS
 70
0
  0
APPID
  5
424
  2
ACAD_DSTYLE_DIMBREAK
 70
0
  0
APPID
  5
425
  2
ACAD_PSEXT
 70
0
  0
ENDTAB
  0
TABLE
  2
DIMSTYLE
  5
437
 70
3
  0
DIMSTYLE
105
438
  2
STANDARD
 70
0
  3

  4

  5

  6

  7

 40
1.0
 41
3.0
 42
2.0
 43
9.0
 44
5.0
 45
0.0
 46
0.0
 47
0.0
 48
0.0
140
3.0
141
2.0
142
0.0
143
25.4
144
1.0
145
0.0
146
1.0
147
2.0
 71
0
 72
0
 73
1
 74
1
 75
0
 76
0
 77
0
 78
0
170
0
171
2
172
0
173
0
174
0
175
0
176
0
177
0
178
0
  0
DIMSTYLE
105
439
  2
ANNOTATIVE
 70
0
  3

  4

  5

  6

  7

 40
0.0
 41
3.0
 42
2.5
 43
10.0
 44
5.0
 45
0.0
 46
0.0
 47
0.0
 48
0.0
140
3.0
141
2.0
142
0.0
143
25.4
144
1.0
145
0.0
146
1.0
147
2.0
 71
0
 72
0
 73
1
 74
1
 75
0
 76
0
 77
0
 78
0
170
0
171
2
172
0
173
0
174
0
175
0
176
0
177
0
178
0
  0
DIMSTYLE
105
43A
  2
CIVIL-METRIC
 70
0
  3

  4

  5

  6

  7

 40
1.0
 41
3.0
 42
1.5
 43
6.0
 44
3.0
 45
0.0
 46
0.0
 47
0.0
 48
0.0
140
3.0
141
3.0
142
0.0
143
25.4
144
1.0
145
0.0
146
1.0
147
2.0
 71
0
 72
0
 73
0
 74
0
 75
0
 76
0
 77
1
 78
3
170
0
171
2
172
0
173
0
174
0
175
0
176
0
177
0
178
0
  0
ENDTAB
  0
ENDSEC
  0
SECTION
  2
BLOCKS
  0
BLOCK
  5
429
  8
0
  2
$MODEL_SPACE
 70
0
 10
0.0
 20
0.0
 30
0.0
  3
$MODEL_SPACE
  1

  0
ENDBLK
  5
21
  8
0
  0
BLOCK
  5
42A
 67
1
  8
0
  2
$PAPER_SPACE
 70
0
 10
0.0
 20
0.0
 30
0.0
  3
$PAPER_SPACE
  1

  0
ENDBLK
  5
5B
 67
1
  8
0
  0
ENDSEC
  0
SECTION
  2
ENTITIES
  0
LINE
  5
43C
  8
0
 10
-11.749999999999945
 20
-7.5
 30
0.0
 11
-9.24999999999996
 21
-7.5
 31
0.0
 67
0
  0
LINE
  5
43D
  8
0
 10
-9.24999999999996
 20
-7.25
 30
0.0
 11
-11.749999999999945
 21
-7.25
 31
0.0
 67
0
  0
LINE
  5
43E
  8
0
 10
-11.749999999999945
 20
-7.25
 30
0.0
 11
-11.749999999999945
 21
-7.071540326368149
 31
0.0
 67
0
  0
LINE
  5
43F
  8
0
 10
-11.749999999999945
 20
-7.071540326368149
 30
0.0
 11
-11.920254889728763
 21
-7.071540326368149
 31
0.0
 67
0
  0
LINE
  5
440
  8
0
 10
-11.920254889728763
 20
-7.071540326368149
 30
0.0
 11
-11.920254889728763
 21
-7.5
 31
0.0
 67
0
  0
LINE
  5
441
  8
0
 10
-11.920254889728763
 20
-7.5
 30
0.0
 11
-11.749999999999945
 21
-7.5
 31
0.0
 67
0
  0
LINE
  5
442
  8
0
 10
-9.079745110271249
 20
-7.5
 30
0.0
 11
-9.24999999999996
 21
-7.5
 31
0.0
 67
0
  0
LINE
  5
443
  8
0
 10
-9.079745110271249
 20
-7.071540326368149
 30
0.0
 11
-9.079745110271249
 21
-7.5
 31
0.0
 67
0
  0
LINE
  5
444
  8
0
 10
-9.24999999999996
 20
-7.071540326368149
 30
0.0
 11
-9.079745110271249
 21
-7.071540326368149
 31
0.0
 67
0
  0
LINE
  5
445
  8
0
 10
-9.24999999999996
 20
-7.25
 30
0.0
 11
-9.24999999999996
 21
-7.071540326368149
 31
0.0
 67
0
  0
LINE
  5
446
  8
0
 10
-8.249999999999963
 20
-7.5
 30
0.0
 11
-5.749999999999958
 21
-7.5
 31
0.0
 67
0
  0
LINE
  5
447
  8
0
 10
-5.749999999999958
 20
-7.25
 30
0.0
 11
-8.249999999999963
 21
-7.25
 31
0.0
 67
0
  0
LINE
  5
448
  8
0
 10
-8.249999999999963
 20
-7.25
 30
0.0
 11
-8.249999999999963
 21
-7.071540326368149
 31
0.0
 67
0
  0
LINE
  5
449
  8
0
 10
-8.249999999999963
 20
-7.071540326368149
 30
0.0
 11
-8.420254889728756
 21
-7.071540326368149
 31
0.0
 67
0
  0
LINE
  5
44A
  8
0
 10
-8.420254889728756
 20
-7.071540326368149
 30
0.0
 11
-8.420254889728756
 21
-7.5
 31
0.0
 67
0
  0
LINE
  5
44B
  8
0
 10
-8.420254889728756
 20
-7.5
 30
0.0
 11
-8.249999999999963
 21
-7.5
 31
0.0
 67
0
  0
LINE
  5
44C
  8
0
 10
-5.579745110271247
 20
-7.5
 30
0.0
 11
-5.749999999999958
 21
-7.5
 31
0.0
 67
0
  0
LINE
  5
44D
  8
0
 10
-5.579745110271247
 20
-7.071540326368149
 30
0.0
 11
-5.579745110271247
 21
-7.5
 31
0.0
 67
0
  0
LINE
  5
44E
  8
0
 10
-5.749999999999958
 20
-7.071540326368149
 30
0.0
 11
-5.579745110271247
 21
-7.071540326368149
 31
0.0
 67
0
  0
LINE
  5
44F
  8
0
 10
-5.749999999999958
 20
-7.25
 30
0.0
 11
-5.749999999999958
 21
-7.071540326368149
 31
0.0
 67
0
  0
LINE
  5
450
  8
0
 10
-4.749999999999958
 20
-7.5
 30
0.0
 11
-2.2499999999999583
 21
-7.5
 31
0.0
 67
0
  0
LINE
  5
451
  8
0
 10
-2.2499999999999583
 20
-7.25
 30
0.0
 11
-4.749999999999958
 21
-7.25
 31
0.0
 67
0
  0
LINE
  5
452
  8
0
 10
-4.749999999999958
 20
-7.25
 30
0.0
 11
-4.749999999999958
 21
-7.071540326368149
 31
0.0
 67
0
  0
LINE
  5
453
  8
0
 10
-4.749999999999958
 20
-7.071540326368149
 30
0.0
 11
-4.920254889728757
 21
-7.071540326368149
 31
0.0
 67
0
  0
LINE
  5
454
  8
0
 10
-4.920254889728757
 20
-7.071540326368149
 30
0.0
 11
-4.920254889728757
 21
-7.5
 31
0.0
 67
0
  0
LINE
  5
455
  8
0
 10
-4.920254889728757
 20
-7.5
 30
0.0
 11
-4.749999999999958
 21
-7.5
 31
0.0
 67
0
  0
LINE
  5
456
  8
0
 10
-2.079745110271247
 20
-7.5
 30
0.0
 11
-2.2499999999999583
 21
-7.5
 31
0.0
 67
0
  0
LINE
  5
457
  8
0
 10
-2.079745110271247
 20
-7.071540326368149
 30
0.0
 11
-2.079745110271247
 21
-7.5
 31
0.0
 67
0
  0
LINE
  5
458
  8
0
 10
-2.2499999999999583
 20
-7.071540326368149
 30
0.0
 11
-2.079745110271247
 21
-7.071540326368149
 31
0.0
 67
0
  0
LINE
  5
459
  8
0
 10
-2.2499999999999583
 20
-7.25
 30
0.0
 11
-2.2499999999999583
 21
-7.071540326368149
 31
0.0
 67
0
  0
LINE
  5
45A
  8
0
 10
-1.2499999999999591
 20
-7.5
 30
0.0
 11
1.250000000000032
 21
-7.5
 31
0.0
 67
0
  0
LINE
  5
45B
  8
0
 10
1.250000000000032
 20
-7.25
 30
0.0
 11
-1.2499999999999591
 21
-7.25
 31
0.0
 67
0
  0
LINE
  5
45C
  8
0
 10
-1.2499999999999591
 20
-7.25
 30
0.0
 11
-1.2499999999999591
 21
-7.071540326368149
 31
0.0
 67
0
  0
LINE
  5
45D
  8
0
 10
-1.2499999999999591
 20
-7.071540326368149
 30
0.0
 11
-1.4202548897287581
 21
-7.071540326368149
 31
0.0
 67
0
  0
LINE
  5
45E
  8
0
 10
-1.4202548897287581
 20
-7.071540326368149
 30
0.0
 11
-1.4202548897287581
 21
-7.5
 31
0.0
 67
0
  0
LINE
  5
45F
  8
0
 10
-1.4202548897287581
 20
-7.5
 30
0.0
 11
-1.2499999999999591
 21
-7.5
 31
0.0
 67
0
  0
LINE
  5
460
  8
0
 10
1.4202548897287528
 20
-7.5
 30
0.0
 11
1.250000000000032
 21
-7.5
 31
0.0
 67
0
  0
LINE
  5
461
  8
0
 10
1.4202548897287528
 20
-7.071540326368149
 30
0.0
 11
1.4202548897287528
 21
-7.5
 31
0.0
 67
0
  0
LINE
  5
462
  8
0
 10
1.250000000000032
 20
-7.071540326368149
 30
0.0
 11
1.4202548897287528
 21
-7.071540326368149
 31
0.0
 67
0
  0
LINE
  5
463
  8
0
 10
1.250000000000032
 20
-7.25
 30
0.0
 11
1.250000000000032
 21
-7.071540326368149
 31
0.0
 67
0
  0
LINE
  5
464
  8
0
 10
2.2500000000000426
 20
-7.499999999999986
 30
0.0
 11
4.750000000000043
 21
-7.499999999999986
 31
0.0
 67
0
  0
LINE
  5
465
  8
0
 10
4.750000000000043
 20
-7.249999999999986
 30
0.0
 11
2.2500000000000426
 21
-7.249999999999986
 31
0.0
 67
0
  0
LINE
  5
466
  8
0
 10
2.2500000000000426
 20
-7.249999999999986
 30
0.0
 11
2.2500000000000426
 21
-7.071540326368149
 31
0.0
 67
0
  0
LINE
  5
467
  8
0
 10
2.2500000000000426
 20
-7.071540326368149
 30
0.0
 11
2.079745110271242
 21
-7.071540326368149
 31
0.0
 67
0
  0
LINE
  5
468
  8
0
 10
2.079745110271242
 20
-7.071540326368149
 30
0.0
 11
2.079745110271242
 21
-7.499999999999986
 31
0.0
 67
0
  0
LINE
  5
469
  8
0
 10
2.079745110271242
 20
-7.499999999999986
 30
0.0
 11
2.2500000000000426
 21
-7.499999999999986
 31
0.0
 67
0
  0
LINE
  5
46A
  8
0
 10
4.920254889728753
 20
-7.499999999999986
 30
0.0
 11
4.750000000000043
 21
-7.499999999999986
 31
0.0
 67
0
  0
LINE
  5
46B
  8
0
 10
4.920254889728753
 20
-7.071540326368149
 30
0.0
 11
4.920254889728753
 21
-7.499999999999986
 31
0.0
 67
0
  0
LINE
  5
46C
  8
0
 10
4.750000000000043
 20
-7.071540326368149
 30
0.0
 11
4.920254889728753
 21
-7.071540326368149
 31
0.0
 67
0
  0
LINE
  5
46D
  8
0
 10
4.750000000000043
 20
-7.249999999999986
 30
0.0
 11
4.750000000000043
 21
-7.071540326368149
 31
0.0
 67
0
  0
LINE
  5
46E
  8
0
 10
5.750000000000032
 20
-7.499999999999986
 30
0.0
 11
8.250000000000034
 21
-7.499999999999986
 31
0.0
 67
0
  0
LINE
  5
46F
  8
0
 10
8.250000000000034
 20
-7.249999999999986
 30
0.0
 11
5.750000000000032
 21
-7.249999999999986
 31
0.0
 67
0
  0
LINE
  5
470
  8
0
 10
5.750000000000032
 20
-7.249999999999986
 30
0.0
 11
5.750000000000032
 21
-7.071540326368149
 31
0.0
 67
0
  0
LINE
  5
471
  8
0
 10
5.750000000000032
 20
-7.071540326368149
 30
0.0
 11
5.579745110271242
 21
-7.071540326368149
 31
0.0
 67
0
  0
LINE
  5
472
  8
0
 10
5.579745110271242
 20
-7.071540326368149
 30
0.0
 11
5.579745110271242
 21
-7.499999999999986
 31
0.0
 67
0
  0
LINE
  5
473
  8
0
 10
5.579745110271242
 20
-7.499999999999986
 30
0.0
 11
5.750000000000032
 21
-7.499999999999986
 31
0.0
 67
0
  0
LINE
  5
474
  8
0
 10
8.420254889728751
 20
-7.499999999999986
 30
0.0
 11
8.250000000000034
 21
-7.499999999999986
 31
0.0
 67
0
  0
LINE
  5
475
  8
0
 10
8.420254889728751
 20
-7.071540326368149
 30
0.0
 11
8.420254889728751
 21
-7.499999999999986
 31
0.0
 67
0
  0
LINE
  5
476
  8
0
 10
8.250000000000034
 20
-7.071540326368149
 30
0.0
 11
8.420254889728751
 21
-7.071540326368149
 31
0.0
 67
0
  0
LINE
  5
477
  8
0
 10
8.250000000000034
 20
-7.249999999999986
 30
0.0
 11
8.250000000000034
 21
-7.071540326368149
 31
0.0
 67
0
  0
LINE
  5
478
  8
0
 10
9.250000000000044
 20
-7.499999999999986
 30
0.0
 11
11.750000000000044
 21
-7.499999999999986
 31
0.0
 67
0
  0
LINE
  5
479
  8
0
 10
11.750000000000044
 20
-7.249999999999986
 30
0.0
 11
9.250000000000044
 21
-7.249999999999986
 31
0.0
 67
0
  0
LINE
  5
47A
  8
0
 10
9.250000000000044
 20
-7.249999999999986
 30
0.0
 11
9.250000000000044
 21
-7.071540326368136
 31
0.0
 67
0
  0
LINE
  5
47B
  8
0
 10
9.250000000000044
 20
-7.071540326368136
 30
0.0
 11
9.079745110271242
 21
-7.071540326368136
 31
0.0
 67
0
  0
LINE
  5
47C
  8
0
 10
9.079745110271242
 20
-7.071540326368136
 30
0.0
 11
9.079745110271242
 21
-7.499999999999986
 31
0.0
 67
0
  0
LINE
  5
47D
  8
0
 10
9.079745110271242
 20
-7.499999999999986
 30
0.0
 11
9.250000000000044
 21
-7.499999999999986
 31
0.0
 67
0
  0
LINE
  5
47E
  8
0
 10
11.920254889728751
 20
-7.499999999999986
 30
0.0
 11
11.750000000000044
 21
-7.499999999999986
 31
0.0
 67
0
  0
LINE
  5
47F
  8
0
 10
11.920254889728751
 20
-7.071540326368136
 30
0.0
 11
11.920254889728751
 21
-7.499999999999986
 31
0.0
 67
0
  0
LINE
  5
480
  8
0
 10
11.750000000000044
 20
-7.071540326368136
 30
0.0
 11
11.920254889728751
 21
-7.071540326368136
 31
0.0
 67
0
  0
LINE
  5
481
  8
0
 10
11.750000000000044
 20
-7.249999999999986
 30
0.0
 11
11.750000000000044
 21
-7.071540326368136
 31
0.0
 67
0
  0
LINE
  5
482
  8
0
 10
-12.500000000000046
 20
12.5
 30
0.0
 11
12.500000000000044
 21
12.5
 31
0.0
 67
0
  0
CIRCLE
  5
483
  8
0
 10
9.500000000000034
 20
9.5
 30
0.0
 40
0.7899999999999996
 67
0
  0
LINE
  5
484
  8
0
 10
12.500000000000044
 20
12.5
 30
0.0
 11
12.500000000000044
 21
-12.5
 31
0.0
 67
0
  0
LINE
  5
485
  8
0
 10
-12.500000000000046
 20
12.5
 30
0.0
 11
-12.500000000000046
 21
-12.5
 31
0.0
 67
0
  0
CIRCLE
  5
486
  8
0
 10
-9.499999999999947
 20
9.5
 30
0.0
 40
0.7900000000000001
 67
0
  0
LINE
  5
487
  8
0
 10
-11.882995334900055
 20
11.0341158617
 30
0.0
 11
-11.297541724500043
 21
11.7997090444
 31
0.0
 67
0
  0
LINE
  5
488
  8
0
 10
-11.297541724500043
 20
11.7997090444
 30
0.0
 11
-10.734605560799945
 21
11.0341158617
 31
0.0
 67
0
  0
LINE
  5
489
  8
0
 10
-10.734605560799945
 20
11.0341158617
 30
0.0
 11
-11.882995334900055
 21
11.0341158617
 31
0.0
 67
0
  0
CIRCLE
  5
48A
  8
0
 10
9.500000000000034
 20
-9.5
 30
0.0
 40
0.7899999999999997
 67
0
  0
LINE
  5
48B
  8
0
 10
-12.500000000000046
 20
-12.5
 30
0.0
 11
12.500000000000044
 21
-12.5
 31
0.0
 67
0
  0
CIRCLE
  5
48C
  8
0
 10
-9.499999999999947
 20
-9.5
 30
0.0
 40
0.7900000000000001
 67
0
  0
LINE
  5
48D
  8
0
 10
4.263256414560601e-14
 20
1.5635910568959164e-17
 30
0.0
 11
1.000000000000032
 21
1.5635910568959164e-17
 31
0.0
 67
0
  0
LINE
  5
48E
  8
0
 10
4.263256414560601e-14
 20
1.5635910568959164e-17
 30
0.0
 11
4.263256414560601e-14
 21
0.9999999999999997
 31
0.0
 67
0
  0
LINE
  5
48F
  8
0
 10
4.263256414560601e-14
 20
1.5635910568959164e-17
 30
0.0
 11
-0.9999999999999591
 21
1.5635910568959164e-17
 31
0.0
 67
0
  0
LINE
  5
490
  8
0
 10
4.263256414560601e-14
 20
1.5635910568959164e-17
 30
0.0
 11
4.263256414560601e-14
 21
-0.9999999999999998
 31
0.0
 67
0
  0
LINE
  5
491
  8
0
 10
-9.999999999999947
 20
1.5635910568959164e-17
 30
0.0
 11
-8.999999999999963
 21
1.5635910568959164e-17
 31
0.0
 67
0
  0
LINE
  5
492
  8
0
 10
-9.999999999999947
 20
1.5635910568959164e-17
 30
0.0
 11
-9.999999999999947
 21
0.9999999999999997
 31
0.0
 67
0
  0
LINE
  5
493
  8
0
 10
-9.999999999999947
 20
1.5635910568959164e-17
 30
0.0
 11
-10.999999999999947
 21
1.5635910568959164e-17
 31
0.0
 67
0
  0
LINE
  5
494
  8
0
 10
-9.999999999999947
 20
1.5635910568959164e-17
 30
0.0
 11
-9.999999999999947
 21
-0.9999999999999998
 31
0.0
 67
0
  0
LINE
  5
495
  8
0
 10
10.000000000000044
 20
1.5635910568959164e-17
 30
0.0
 11
11.000000000000044
 21
1.5635910568959164e-17
 31
0.0
 67
0
  0
LINE
  5
496
  8
0
 10
10.000000000000044
 20
1.5635910568959164e-17
 30
0.0
 11
10.000000000000044
 21
0.9999999999999997
 31
0.0
 67
0
  0
LINE
  5
497
  8
0
 10
10.000000000000044
 20
1.5635910568959164e-17
 30
0.0
 11
9.000000000000044
 21
1.5635910568959164e-17
 31
0.0
 67
0
  0
LINE
  5
498
  8
0
 10
10.000000000000044
 20
1.5635910568959164e-17
 30
0.0
 11
10.000000000000044
 21
-0.9999999999999998
 31
0.0
 67
0
  0
LINE
  5
499
  8
0
 10
-11.749999999999945
 20
7.499999999999999
 30
0.0
 11
-9.24999999999996
 21
7.499999999999999
 31
0.0
 67
0
  0
LINE
  5
49A
  8
0
 10
-9.24999999999996
 20
7.249999999999999
 30
0.0
 11
-11.749999999999945
 21
7.249999999999999
 31
0.0
 67
0
  0
LINE
  5
49B
  8
0
 10
-11.749999999999945
 20
7.249999999999999
 30
0.0
 11
-11.749999999999945
 21
7.071540326368147
 31
0.0
 67
0
  0
LINE
  5
49C
  8
0
 10
-11.749999999999945
 20
7.071540326368147
 30
0.0
 11
-11.920254889728763
 21
7.071540326368147
 31
0.0
 67
0
  0
LINE
  5
49D
  8
0
 10
-11.920254889728763
 20
7.071540326368147
 30
0.0
 11
-11.920254889728763
 21
7.499999999999999
 31
0.0
 67
0
  0
LINE
  5
49E
  8
0
 10
-11.920254889728763
 20
7.499999999999999
 30
0.0
 11
-11.749999999999945
 21
7.499999999999999
 31
0.0
 67
0
  0
LINE
  5
49F
  8
0
 10
-9.079745110271249
 20
7.499999999999999
 30
0.0
 11
-9.24999999999996
 21
7.499999999999999
 31
0.0
 67
0
  0
LINE
  5
4A0
  8
0
 10
-9.079745110271249
 20
7.071540326368147
 30
0.0
 11
-9.079745110271249
 21
7.499999999999999
 31
0.0
 67
0
  0
LINE
  5
4A1
  8
0
 10
-9.24999999999996
 20
7.071540326368147
 30
0.0
 11
-9.079745110271249
 21
7.071540326368147
 31
0.0
 67
0
  0
LINE
  5
4A2
  8
0
 10
-9.24999999999996
 20
7.249999999999999
 30
0.0
 11
-9.24999999999996
 21
7.071540326368147
 31
0.0
 67
0
  0
LINE
  5
4A3
  8
0
 10
-8.249999999999963
 20
7.499999999999999
 30
0.0
 11
-5.749999999999958
 21
7.499999999999999
 31
0.0
 67
0
  0
LINE
  5
4A4
  8
0
 10
-5.749999999999958
 20
7.249999999999999
 30
0.0
 11
-8.249999999999963
 21
7.249999999999999
 31
0.0
 67
0
  0
LINE
  5
4A5
  8
0
 10
-8.249999999999963
 20
7.249999999999999
 30
0.0
 11
-8.249999999999963
 21
7.071540326368147
 31
0.0
 67
0
  0
LINE
  5
4A6
  8
0
 10
-8.249999999999963
 20
7.071540326368147
 30
0.0
 11
-8.420254889728756
 21
7.071540326368147
 31
0.0
 67
0
  0
LINE
  5
4A7
  8
0
 10
-8.420254889728756
 20
7.071540326368147
 30
0.0
 11
-8.420254889728756
 21
7.499999999999999
 31
0.0
 67
0
  0
LINE
  5
4A8
  8
0
 10
-8.420254889728756
 20
7.499999999999999
 30
0.0
 11
-8.249999999999963
 21
7.499999999999999
 31
0.0
 67
0
  0
LINE
  5
4A9
  8
0
 10
-5.579745110271247
 20
7.499999999999999
 30
0.0
 11
-5.749999999999958
 21
7.499999999999999
 31
0.0
 67
0
  0
LINE
  5
4AA
  8
0
 10
-5.579745110271247
 20
7.071540326368147
 30
0.0
 11
-5.579745110271247
 21
7.499999999999999
 31
0.0
 67
0
  0
LINE
  5
4AB
  8
0
 10
-5.749999999999958
 20
7.071540326368147
 30
0.0
 11
-5.579745110271247
 21
7.071540326368147
 31
0.0
 67
0
  0
LINE
  5
4AC
  8
0
 10
-5.749999999999958
 20
7.249999999999999
 30
0.0
 11
-5.749999999999958
 21
7.071540326368147
 31
0.0
 67
0
  0
LINE
  5
4AD
  8
0
 10
-4.749999999999958
 20
7.499999999999999
 30
0.0
 11
-2.2499999999999583
 21
7.499999999999999
 31
0.0
 67
0
  0
LINE
  5
4AE
  8
0
 10
-2.2499999999999583
 20
7.249999999999999
 30
0.0
 11
-4.749999999999958
 21
7.249999999999999
 31
0.0
 67
0
  0
LINE
  5
4AF
  8
0
 10
-4.749999999999958
 20
7.249999999999999
 30
0.0
 11
-4.749999999999958
 21
7.071540326368147
 31
0.0
 67
0
  0
LINE
  5
4B0
  8
0
 10
-4.749999999999958
 20
7.071540326368147
 30
0.0
 11
-4.920254889728757
 21
7.071540326368147
 31
0.0
 67
0
  0
LINE
  5
4B1
  8
0
 10
-4.920254889728757
 20
7.071540326368147
 30
0.0
 11
-4.920254889728757
 21
7.499999999999999
 31
0.0
 67
0
  0
LINE
  5
4B2
  8
0
 10
-4.920254889728757
 20
7.499999999999999
 30
0.0
 11
-4.749999999999958
 21
7.499999999999999
 31
0.0
 67
0
  0
LINE
  5
4B3
  8
0
 10
-2.079745110271247
 20
7.499999999999999
 30
0.0
 11
-2.2499999999999583
 21
7.499999999999999
 31
0.0
 67
0
  0
LINE
  5
4B4
  8
0
 10
-2.079745110271247
 20
7.071540326368147
 30
0.0
 11
-2.079745110271247
 21
7.499999999999999
 31
0.0
 67
0
  0
LINE
  5
4B5
  8
0
 10
-2.2499999999999583
 20
7.071540326368147
 30
0.0
 11
-2.079745110271247
 21
7.071540326368147
 31
0.0
 67
0
  0
LINE
  5
4B6
  8
0
 10
-2.2499999999999583
 20
7.249999999999999
 30
0.0
 11
-2.2499999999999583
 21
7.071540326368147
 31
0.0
 67
0
  0
LINE
  5
4B7
  8
0
 10
-1.2499999999999591
 20
7.499999999999999
 30
0.0
 11
1.250000000000032
 21
7.499999999999999
 31
0.0
 67
0
  0
LINE
  5
4B8
  8
0
 10
1.250000000000032
 20
7.249999999999999
 30
0.0
 11
-1.2499999999999591
 21
7.249999999999999
 31
0.0
 67
0
  0
LINE
  5
4B9
  8
0
 10
-1.2499999999999591
 20
7.249999999999999
 30
0.0
 11
-1.2499999999999591
 21
7.071540326368147
 31
0.0
 67
0
  0
LINE
  5
4BA
  8
0
 10
-1.2499999999999591
 20
7.071540326368147
 30
0.0
 11
-1.4202548897287581
 21
7.071540326368147
 31
0.0
 67
0
  0
LINE
  5
4BB
  8
0
 10
-1.4202548897287581
 20
7.071540326368147
 30
0.0
 11
-1.4202548897287581
 21
7.499999999999999
 31
0.0
 67
0
  0
LINE
  5
4BC
  8
0
 10
-1.4202548897287581
 20
7.499999999999999
 30
0.0
 11
-1.2499999999999591
 21
7.499999999999999
 31
0.0
 67
0
  0
LINE
  5
4BD
  8
0
 10
1.4202548897287528
 20
7.499999999999999
 30
0.0
 11
1.250000000000032
 21
7.499999999999999
 31
0.0
 67
0
  0
LINE
  5
4BE
  8
0
 10
1.4202548897287528
 20
7.071540326368147
 30
0.0
 11
1.4202548897287528
 21
7.499999999999999
 31
0.0
 67
0
  0
LINE
  5
4BF
  8
0
 10
1.250000000000032
 20
7.071540326368147
 30
0.0
 11
1.4202548897287528
 21
7.071540326368147
 31
0.0
 67
0
  0
LINE
  5
4C0
  8
0
 10
1.250000000000032
 20
7.249999999999999
 30
0.0
 11
1.250000000000032
 21
7.071540326368147
 31
0.0
 67
0
  0
LINE
  5
4C1
  8
0
 10
2.2500000000000426
 20
7.499999999999983
 30
0.0
 11
4.750000000000043
 21
7.499999999999983
 31
0.0
 67
0
  0
LINE
  5
4C2
  8
0
 10
4.750000000000043
 20
7.249999999999983
 30
0.0
 11
2.2500000000000426
 21
7.249999999999983
 31
0.0
 67
0
  0
LINE
  5
4C3
  8
0
 10
2.2500000000000426
 20
7.249999999999983
 30
0.0
 11
2.2500000000000426
 21
7.071540326368147
 31
0.0
 67
0
  0
LINE
  5
4C4
  8
0
 10
2.2500000000000426
 20
7.071540326368147
 30
0.0
 11
2.079745110271242
 21
7.071540326368147
 31
0.0
 67
0
  0
LINE
  5
4C5
  8
0
 10
2.079745110271242
 20
7.071540326368147
 30
0.0
 11
2.079745110271242
 21
7.499999999999983
 31
0.0
 67
0
  0
LINE
  5
4C6
  8
0
 10
2.079745110271242
 20
7.499999999999983
 30
0.0
 11
2.2500000000000426
 21
7.499999999999983
 31
0.0
 67
0
  0
LINE
  5
4C7
  8
0
 10
4.920254889728753
 20
7.499999999999983
 30
0.0
 11
4.750000000000043
 21
7.499999999999983
 31
0.0
 67
0
  0
LINE
  5
4C8
  8
0
 10
4.920254889728753
 20
7.071540326368147
 30
0.0
 11
4.920254889728753
 21
7.499999999999983
 31
0.0
 67
0
  0
LINE
  5
4C9
  8
0
 10
4.750000000000043
 20
7.071540326368147
 30
0.0
 11
4.920254889728753
 21
7.071540326368147
 31
0.0
 67
0
  0
LINE
  5
4CA
  8
0
 10
4.750000000000043
 20
7.249999999999983
 30
0.0
 11
4.750000000000043
 21
7.071540326368147
 31
0.0
 67
0
  0
LINE
  5
4CB
  8
0
 10
5.750000000000032
 20
7.499999999999983
 30
0.0
 11
8.250000000000034
 21
7.499999999999983
 31
0.0
 67
0
  0
LINE
  5
4CC
  8
0
 10
8.250000000000034
 20
7.249999999999983
 30
0.0
 11
5.750000000000032
 21
7.249999999999983
 31
0.0
 67
0
  0
LINE
  5
4CD
  8
0
 10
5.750000000000032
 20
7.249999999999983
 30
0.0
 11
5.750000000000032
 21
7.071540326368147
 31
0.0
 67
0
  0
LINE
  5
4CE
  8
0
 10
5.750000000000032
 20
7.071540326368147
 30
0.0
 11
5.579745110271242
 21
7.071540326368147
 31
0.0
 67
0
  0
LINE
  5
4CF
  8
0
 10
5.579745110271242
 20
7.071540326368147
 30
0.0
 11
5.579745110271242
 21
7.499999999999983
 31
0.0
 67
0
  0
LINE
  5
4D0
  8
0
 10
5.579745110271242
 20
7.499999999999983
 30
0.0
 11
5.750000000000032
 21
7.499999999999983
 31
0.0
 67
0
  0
LINE
  5
4D1
  8
0
 10
8.420254889728751
 20
7.499999999999983
 30
0.0
 11
8.250000000000034
 21
7.499999999999983
 31
0.0
 67
0
  0
LINE
  5
4D2
  8
0
 10
8.420254889728751
 20
7.071540326368147
 30
0.0
 11
8.420254889728751
 21
7.499999999999983
 31
0.0
 67
0
  0
LINE
  5
4D3
  8
0
 10
8.250000000000034
 20
7.071540326368147
 30
0.0
 11
8.420254889728751
 21
7.071540326368147
 31
0.0
 67
0
  0
LINE
  5
4D4
  8
0
 10
8.250000000000034
 20
7.249999999999983
 30
0.0
 11
8.250000000000034
 21
7.071540326368147
 31
0.0
 67
0
  0
LINE
  5
4D5
  8
0
 10
9.250000000000044
 20
7.499999999999983
 30
0.0
 11
11.750000000000044
 21
7.499999999999983
 31
0.0
 67
0
  0
LINE
  5
4D6
  8
0
 10
11.750000000000044
 20
7.249999999999983
 30
0.0
 11
9.250000000000044
 21
7.249999999999983
 31
0.0
 67
0
  0
LINE
  5
4D7
  8
0
 10
9.250000000000044
 20
7.249999999999983
 30
0.0
 11
9.250000000000044
 21
7.071540326368131
 31
0.0
 67
0
  0
LINE
  5
4D8
  8
0
 10
9.250000000000044
 20
7.071540326368131
 30
0.0
 11
9.079745110271242
 21
7.071540326368131
 31
0.0
 67
0
  0
LINE
  5
4D9
  8
0
 10
9.079745110271242
 20
7.071540326368131
 30
0.0
 11
9.079745110271242
 21
7.499999999999983
 31
0.0
 67
0
  0
LINE
  5
4DA
  8
0
 10
9.079745110271242
 20
7.499999999999983
 30
0.0
 11
9.250000000000044
 21
7.499999999999983
 31
0.0
 67
0
  0
LINE
  5
4DB
  8
0
 10
11.920254889728751
 20
7.499999999999983
 30
0.0
 11
11.750000000000044
 21
7.499999999999983
 31
0.0
 67
0
  0
LINE
  5
4DC
  8
0
 10
11.920254889728751
 20
7.071540326368131
 30
0.0
 11
11.920254889728751
 21
7.499999999999983
 31
0.0
 67
0
  0
LINE
  5
4DD
  8
0
 10
11.750000000000044
 20
7.071540326368131
 30
0.0
 11
11.920254889728751
 21
7.071540326368131
 31
0.0
 67
0
  0
LINE
  5
4DE
  8
0
 10
11.750000000000044
 20
7.249999999999983
 30
0.0
 11
11.750000000000044
 21
7.071540326368131
 31
0.0
 67
0
  0
LINE
  5
4DF
  8
0
 10
-6.067714340834359
 20
-0.24213028092594868
 30
0.0
 11
-6.067714340834359
 21
-1.1821302809430547
 31
0.0
 67
0
  0
LINE
  5
4E0
  8
0
 10
-7.982714340848718
 20
-1.1821302809430547
 30
0.0
 11
-7.982714340848727
 21
-0.4921302809229931
 31
0.0
 67
0
  0
LINE
  5
4E1
  8
0
 10
-7.982714340848727
 20
-0.4921302809229931
 30
0.0
 11
-8.482714340836907
 21
-0.4921302809229931
 31
0.0
 67
0
  0
LINE
  5
4E2
  8
0
 10
-8.482714340836907
 20
-0.4921302809229931
 30
0.0
 11
-8.482714340836907
 21
-0.24213028092594868
 31
0.0
 67
0
  0
LINE
  5
4E3
  8
0
 10
-6.832714340840633
 20
-1.1821302809430547
 30
0.0
 11
-6.832714340840625
 21
-1.3321302808381847
 31
0.0
 67
0
  0
LINE
  5
4E4
  8
0
 10
-7.982714340848727
 20
-1.1821302809430547
 30
0.0
 11
-6.832714340840633
 21
-1.1821302809430547
 31
0.0
 67
0
  0
LINE
  5
4E5
  8
0
 10
-6.532714340840635
 20
-1.1821302809430547
 30
0.0
 11
-6.067714340834359
 21
-1.1821302809430547
 31
0.0
 67
0
  0
LINE
  5
4E6
  8
0
 10
-6.532714340840635
 20
-1.1821302809430547
 30
0.0
 11
-6.532714340840615
 21
-1.3321302808381708
 31
0.0
 67
0
  0
LINE
  5
4E7
  8
0
 10
-6.267714340834351
 20
0.10786971907108982
 30
0.0
 11
-8.282714340836906
 21
0.10786971907108982
 31
0.0
 67
0
  0
LINE
  5
4E8
  8
0
 10
-8.282714340836886
 20
-0.2921302809230042
 30
0.0
 11
-8.282714340836886
 21
-0.24213028092594868
 31
0.0
 67
0
  0
LINE
  5
4E9
  8
0
 10
-8.282714340833056
 20
0.2248697190902078
 30
0.0
 11
-6.267714340834365
 21
0.2248697190902078
 31
0.0
 67
0
  0
LINE
  5
4EA
  8
0
 10
-6.267714340834365
 20
0.6248697190843018
 30
0.0
 11
-6.267714340834351
 21
0.5748697190872463
 31
0.0
 67
0
  0
LINE
  5
4EB
  8
0
 10
-6.307714340864069
 20
0.6248697190842876
 30
0.0
 11
-6.267714340834365
 21
0.6248697190843018
 31
0.0
 67
0
  0
LINE
  5
4EC
  8
0
 10
-6.307714340864069
 20
0.6248697190842876
 30
0.0
 11
-7.457714340763334
 21
1.1248697190405024
 31
0.0
 67
0
  0
LINE
  5
4ED
  8
0
 10
-7.457714340763334
 20
1.1248697190405024
 30
0.0
 11
-8.282714340836886
 21
1.1248697190724783
 31
0.0
 67
0
  0
LINE
  5
4EE
  8
0
 10
-8.282714340836886
 20
1.1248697190724783
 30
0.0
 11
-8.282714340834078
 21
0.5748697190872463
 31
0.0
 67
0
  0
POLYLINE
  5
4EF
  8
0
 66
1
 70
8
 10
0.0
 20
0.0
 30
0.0
 67
0
  0
VERTEX
  5
4F1
  8
0
 10
-8.282714340836886
 20
1.1248697190724783
 30
0.0
 40
0.0
 41
0.0
 42
0.0
 70
32
 67
0
  0
VERTEX
  5
4F2
  8
0
 10
-7.457714340763334
 20
1.1248697190405024
 30
0.0
 40
0.0
 41
0.0
 42
0.0
 70
32
 67
0
  0
VERTEX
  5
4F3
  8
0
 10
-6.307714340864069
 20
0.6248697190842876
 30
0.0
 40
0.0
 41
0.0
 42
0.0
 70
32
 67
0
  0
VERTEX
  5
4F4
  8
0
 10
-6.267714340834365
 20
0.6248697190843018
 30
0.0
 40
0.0
 41
0.0
 42
0.0
 70
32
 67
0
  0
VERTEX
  5
4F5
  8
0
 10
-6.267714340834351
 20
0.5748697190872463
 30
0.0
 40
0.0
 41
0.0
 42
0.0
 70
32
 67
0
  0
SEQEND
  5
4F0
 67
0
  0
POLYLINE
  5
4F6
  8
0
 66
1
 70
8
 10
0.0
 20
0.0
 30
0.0
 67
0
  0
VERTEX
  5
4F8
  8
0
 10
-6.067714340834359
 20
0.2748697190872491
 30
0.0
 40
0.0
 41
0.0
 42
0.0
 70
32
 67
0
  0
VERTEX
  5
4F9
  8
0
 10
-6.067714340834359
 20
0.05786971907404852
 30
0.0
 40
0.0
 41
0.0
 42
0.0
 70
32
 67
0
  0
SEQEND
  5
4F7
 67
0
  0
LINE
  5
4FA
  8
0
 10
-6.267714340834351
 20
0.2748697190872491
 30
0.0
 11
-6.067714340834359
 21
0.2748697190872491
 31
0.0
 67
0
  0
LINE
  5
4FB
  8
0
 10
-6.267714340834351
 20
0.5748697190872463
 30
0.0
 11
-6.067714340834359
 21
0.5748697190872463
 31
0.0
 67
0
  0
LINE
  5
4FC
  8
0
 10
-8.282714340834348
 20
0.2748697190872491
 30
0.0
 11
-8.482714340834358
 21
0.2748697190872491
 31
0.0
 67
0
  0
LINE
  5
4FD
  8
0
 10
-8.282714340834328
 20
0.5748697190872463
 30
0.0
 11
-8.482714340834358
 21
0.5748697190872463
 31
0.0
 67
0
  0
LINE
  5
4FE
  8
0
 10
-8.282714340834328
 20
-0.24213028092594868
 30
0.0
 11
-8.482714340834358
 21
-0.24213028092594868
 31
0.0
 67
0
  0
LINE
  5
4FF
  8
0
 10
-8.282714340834348
 20
0.05786971907404852
 30
0.0
 11
-8.482714340834358
 21
0.05786971907404852
 31
0.0
 67
0
  0
LINE
  5
500
  8
0
 10
-6.267714340834351
 20
0.10786971907108982
 30
0.0
 11
-6.267714340834351
 21
0.05786971907404852
 31
0.0
 67
0
  0
LINE
  5
501
  8
0
 10
-6.267714340834365
 20
-0.24213028092594868
 30
0.0
 11
-6.067714340834359
 21
-0.24213028092594868
 31
0.0
 67
0
  0
LINE
  5
502
  8
0
 10
-6.267714340834351
 20
0.05786971907404852
 30
0.0
 11
-6.067714340834359
 21
0.05786971907404852
 31
0.0
 67
0
  0
LINE
  5
503
  8
0
 10
-7.517714340834966
 20
-0.2921302809230042
 30
0.0
 11
-8.282714340836886
 21
-0.2921302809230042
 31
0.0
 67
0
  0
LINE
  5
504
  8
0
 10
-6.267714340834365
 20
-0.24213028092594868
 30
0.0
 11
-6.267714340834999
 21
-0.4950719285288872
 31
0.0
 67
0
  0
LINE
  5
505
  8
0
 10
-6.267714340834999
 20
-0.4950719285288872
 30
0.0
 11
-6.517714340834999
 21
-0.4950719285288872
 31
0.0
 67
0
  0
LINE
  5
506
  8
0
 10
-6.517714340834999
 20
-0.4950719285288872
 30
0.0
 11
-6.517714340834999
 21
-0.745071928528887
 31
0.0
 67
0
  0
LINE
  5
507
  8
0
 10
-6.517714340834999
 20
-0.745071928528887
 30
0.0
 11
-6.767714340834994
 21
-0.745071928528887
 31
0.0
 67
0
  0
LINE
  5
508
  8
0
 10
-6.767714340834994
 20
-0.745071928528887
 30
0.0
 11
-6.767714340834994
 21
-0.2821302809289108
 31
0.0
 67
0
  0
LINE
  5
509
  8
0
 10
-6.767714340834994
 20
-0.2821302809289108
 30
0.0
 11
-7.017714340834966
 21
-0.2821302809289108
 31
0.0
 67
0
  0
LINE
  5
50A
  8
0
 10
-7.017714340834966
 20
-0.2821302809289108
 30
0.0
 11
-7.017714340834966
 21
-0.745071928528887
 31
0.0
 67
0
  0
LINE
  5
50B
  8
0
 10
-7.017714340834966
 20
-0.745071928528887
 30
0.0
 11
-7.267714340834967
 21
-0.745071928528887
 31
0.0
 67
0
  0
LINE
  5
50C
  8
0
 10
-7.267714340834967
 20
-0.745071928528887
 30
0.0
 11
-7.267714340834967
 21
-0.4950719285288872
 31
0.0
 67
0
  0
LINE
  5
50D
  8
0
 10
-7.267714340834967
 20
-0.4950719285288872
 30
0.0
 11
-7.517714340834966
 21
-0.4950719285288872
 31
0.0
 67
0
  0
LINE
  5
50E
  8
0
 10
-7.517714340834966
 20
-0.4950719285288872
 30
0.0
 11
-7.517714340834966
 21
-0.2921302809230042
 31
0.0
 67
0
  0
LINE
  5
50F
  8
0
 10
-6.267714340834351
 20
0.2748697190872491
 30
0.0
 11
-6.267714340834365
 21
0.2248697190902078
 31
0.0
 67
0
  0
LINE
  5
510
  8
0
 10
-8.282714340833312
 20
0.2748697190872491
 30
0.0
 11
-8.282714340833056
 21
0.2248697190902078
 31
0.0
 67
0
  0
POLYLINE
  5
511
  8
0
 66
1
 70
8
 10
0.0
 20
0.0
 30
0.0
 67
0
  0
VERTEX
  5
513
  8
0
 10
-8.282714340836906
 20
0.5748697190872463
 30
0.0
 40
0.0
 41
0.0
 42
0.0
 70
32
 67
0
  0
VERTEX
  5
514
  8
0
 10
-8.282714340836886
 20
1.1248697190724783
 30
0.0
 40
0.0
 41
0.0
 42
0.0
 70
32
 67
0
  0
SEQEND
  5
512
 67
0
  0
POLYLINE
  5
515
  8
0
 66
1
 70
8
 10
0.0
 20
0.0
 30
0.0
 67
0
  0
VERTEX
  5
517
  8
0
 10
-8.482714340836907
 20
0.5748697190872463
 30
0.0
 40
0.0
 41
0.0
 42
0.0
 70
32
 67
0
  0
VERTEX
  5
518
  8
0
 10
-8.482714340836907
 20
1.3248697190887224
 30
0.0
 40
0.0
 41
0.0
 42
0.0
 70
32
 67
0
  0
VERTEX
  5
519
  8
0
 10
-6.567714340827181
 20
1.3248697189991103
 30
0.0
 40
0.0
 41
0.0
 42
0.0
 70
32
 67
0
  0
VERTEX
  5
51A
  8
0
 10
-6.567714340827181
 20
0.8248697190842902
 30
0.0
 40
0.0
 41
0.0
 42
0.0
 70
32
 67
0
  0
VERTEX
  5
51B
  8
0
 10
-6.067714340834359
 20
0.8248697190842902
 30
0.0
 40
0.0
 41
0.0
 42
0.0
 70
32
 67
0
  0
VERTEX
  5
51C
  8
0
 10
-6.067714340834359
 20
0.5748697190872463
 30
0.0
 40
0.0
 41
0.0
 42
0.0
 70
32
 67
0
  0
SEQEND
  5
516
 67
0
  0
LINE
  5
51D
  8
0
 10
-8.282714340836906
 20
0.05786971907404852
 30
0.0
 11
-8.282714340836906
 21
0.10786971907108982
 31
0.0
 67
0
  0
POLYLINE
  5
51E
  8
0
 66
1
 70
8
 10
0.0
 20
0.0
 30
0.0
 67
0
  0
VERTEX
  5
520
  8
0
 10
-8.482714340836907
 20
0.05786971907404852
 30
0.0
 40
0.0
 41
0.0
 42
0.0
 70
32
 67
0
  0
VERTEX
  5
521
  8
0
 10
-8.482714340836907
 20
0.2748697190872491
 30
0.0
 40
0.0
 41
0.0
 42
0.0
 70
32
 67
0
  0
SEQEND
  5
51F
 67
0
  0
LINE
  5
522
  8
0
 10
-2.514951555756684
 20
-0.17038875961588928
 30
0.0
 11
-2.514951555756684
 21
-1.1103887596329958
 31
0.0
 67
0
  0
LINE
  5
523
  8
0
 10
-4.429951555771044
 20
-1.1103887596329958
 30
0.0
 11
-4.429951555771052
 21
-0.4203887596129337
 31
0.0
 67
0
  0
LINE
  5
524
  8
0
 10
-4.429951555771052
 20
-0.4203887596129337
 30
0.0
 11
-4.929951555759234
 21
-0.4203887596129337
 31
0.0
 67
0
  0
LINE
  5
525
  8
0
 10
-4.929951555759234
 20
-0.4203887596129337
 30
0.0
 11
-4.929951555759234
 21
-0.17038875961588928
 31
0.0
 67
0
  0
LINE
  5
526
  8
0
 10
-3.279951555762956
 20
-1.1103887596329958
 30
0.0
 11
-3.279951555762949
 21
-1.2603887595281258
 31
0.0
 67
0
  0
LINE
  5
527
  8
0
 10
-4.429951555771052
 20
-1.1103887596329958
 30
0.0
 11
-3.279951555762956
 21
-1.1103887596329958
 31
0.0
 67
0
  0
LINE
  5
528
  8
0
 10
-2.9799515557629643
 20
-1.1103887596329958
 30
0.0
 11
-2.514951555756684
 21
-1.1103887596329958
 31
0.0
 67
0
  0
LINE
  5
529
  8
0
 10
-2.9799515557629643
 20
-1.1103887596329958
 30
0.0
 11
-2.9799515557629412
 21
-1.2603887595281107
 31
0.0
 67
0
  0
LINE
  5
52A
  8
0
 10
-2.7149515557566763
 20
0.17961124038114923
 30
0.0
 11
-4.729951555759232
 21
0.17961124038114923
 31
0.0
 67
0
  0
LINE
  5
52B
  8
0
 10
-4.729951555759208
 20
-0.2203887596129448
 30
0.0
 11
-4.729951555759208
 21
-0.17038875961588928
 31
0.0
 67
0
  0
LINE
  5
52C
  8
0
 10
-4.729951555755379
 20
0.2966112404002672
 30
0.0
 11
-2.714951555756687
 21
0.2966112404002672
 31
0.0
 67
0
  0
LINE
  5
52D
  8
0
 10
-2.714951555756687
 20
0.6966112403943612
 30
0.0
 11
-2.7149515557566763
 21
0.6466112403973057
 31
0.0
 67
0
  0
LINE
  5
52E
  8
0
 10
-2.754951555786392
 20
0.696611240394347
 30
0.0
 11
-2.714951555756687
 21
0.6966112403943612
 31
0.0
 67
0
  0
LINE
  5
52F
  8
0
 10
-2.754951555786392
 20
0.696611240394347
 30
0.0
 11
-3.904951555685656
 21
1.1966112403505633
 31
0.0
 67
0
  0
LINE
  5
530
  8
0
 10
-3.904951555685656
 20
1.1966112403505633
 30
0.0
 11
-4.729951555759208
 21
1.1966112403825364
 31
0.0
 67
0
  0
LINE
  5
531
  8
0
 10
-4.729951555759208
 20
1.1966112403825364
 30
0.0
 11
-4.729951555756404
 21
0.6466112403973057
 31
0.0
 67
0
  0
POLYLINE
  5
532
  8
0
 66
1
 70
8
 10
0.0
 20
0.0
 30
0.0
 67
0
  0
VERTEX
  5
534
  8
0
 10
-4.729951555759208
 20
1.1966112403825364
 30
0.0
 40
0.0
 41
0.0
 42
0.0
 70
32
 67
0
  0
VERTEX
  5
535
  8
0
 10
-3.904951555685656
 20
1.1966112403505633
 30
0.0
 40
0.0
 41
0.0
 42
0.0
 70
32
 67
0
  0
VERTEX
  5
536
  8
0
 10
-2.754951555786392
 20
0.696611240394347
 30
0.0
 40
0.0
 41
0.0
 42
0.0
 70
32
 67
0
  0
VERTEX
  5
537
  8
0
 10
-2.714951555756687
 20
0.6966112403943612
 30
0.0
 40
0.0
 41
0.0
 42
0.0
 70
32
 67
0
  0
VERTEX
  5
538
  8
0
 10
-2.7149515557566763
 20
0.6466112403973057
 30
0.0
 40
0.0
 41
0.0
 42
0.0
 70
32
 67
0
  0
SEQEND
  5
533
 67
0
  0
POLYLINE
  5
539
  8
0
 66
1
 70
8
 10
0.0
 20
0.0
 30
0.0
 67
0
  0
VERTEX
  5
53B
  8
0
 10
-2.514951555756684
 20
0.3466112403973085
 30
0.0
 40
0.0
 41
0.0
 42
0.0
 70
32
 67
0
  0
VERTEX
  5
53C
  8
0
 10
-2.514951555756684
 20
0.12961124038410793
 30
0.0
 40
0.0
 41
0.0
 42
0.0
 70
32
 67
0
  0
SEQEND
  5
53A
 67
0
  0
LINE
  5
53D
  8
0
 10
-2.7149515557566763
 20
0.3466112403973085
 30
0.0
 11
-2.514951555756684
 21
0.3466112403973085
 31
0.0
 67
0
  0
LINE
  5
53E
  8
0
 10
-2.7149515557566763
 20
0.6466112403973057
 30
0.0
 11
-2.514951555756684
 21
0.6466112403973057
 31
0.0
 67
0
  0
LINE
  5
53F
  8
0
 10
-4.729951555756676
 20
0.3466112403973085
 30
0.0
 11
-4.929951555756684
 21
0.3466112403973085
 31
0.0
 67
0
  0
LINE
  5
540
  8
0
 10
-4.729951555756652
 20
0.6466112403973057
 30
0.0
 11
-4.929951555756684
 21
0.6466112403973057
 31
0.0
 67
0
  0
LINE
  5
541
  8
0
 10
-4.729951555756652
 20
-0.17038875961588928
 30
0.0
 11
-4.929951555756684
 21
-0.17038875961588928
 31
0.0
 67
0
  0
LINE
  5
542
  8
0
 10
-4.729951555756676
 20
0.12961124038410793
 30
0.0
 11
-4.929951555756684
 21
0.12961124038410793
 31
0.0
 67
0
  0
LINE
  5
543
  8
0
 10
-2.7149515557566763
 20
0.17961124038114923
 30
0.0
 11
-2.7149515557566763
 21
0.12961124038410793
 31
0.0
 67
0
  0
LINE
  5
544
  8
0
 10
-2.714951555756687
 20
-0.17038875961588928
 30
0.0
 11
-2.514951555756684
 21
-0.17038875961588928
 31
0.0
 67
0
  0
LINE
  5
545
  8
0
 10
-2.7149515557566763
 20
0.12961124038410793
 30
0.0
 11
-2.514951555756684
 21
0.12961124038410793
 31
0.0
 67
0
  0
LINE
  5
546
  8
0
 10
-3.964951555757289
 20
-0.2203887596129448
 30
0.0
 11
-4.729951555759208
 21
-0.2203887596129448
 31
0.0
 67
0
  0
LINE
  5
547
  8
0
 10
-2.714951555756687
 20
-0.17038875961588928
 30
0.0
 11
-2.714951555757324
 21
-0.42333040721882786
 31
0.0
 67
0
  0
LINE
  5
548
  8
0
 10
-2.714951555757324
 20
-0.42333040721882786
 30
0.0
 11
-2.964951555757324
 21
-0.42333040721882786
 31
0.0
 67
0
  0
LINE
  5
549
  8
0
 10
-2.964951555757324
 20
-0.42333040721882786
 30
0.0
 11
-2.964951555757324
 21
-0.6733304072188275
 31
0.0
 67
0
  0
LINE
  5
54A
  8
0
 10
-2.964951555757324
 20
-0.6733304072188275
 30
0.0
 11
-3.2149515557573203
 21
-0.6733304072188275
 31
0.0
 67
0
  0
LINE
  5
54B
  8
0
 10
-3.2149515557573203
 20
-0.6733304072188275
 30
0.0
 11
-3.2149515557573203
 21
-0.2103887596188514
 31
0.0
 67
0
  0
LINE
  5
54C
  8
0
 10
-3.2149515557573203
 20
-0.2103887596188514
 30
0.0
 11
-3.464951555757289
 21
-0.2103887596188514
 31
0.0
 67
0
  0
LINE
  5
54D
  8
0
 10
-3.464951555757289
 20
-0.2103887596188514
 30
0.0
 11
-3.464951555757289
 21
-0.6733304072188275
 31
0.0
 67
0
  0
LINE
  5
54E
  8
0
 10
-3.464951555757289
 20
-0.6733304072188275
 30
0.0
 11
-3.714951555757289
 21
-0.6733304072188275
 31
0.0
 67
0
  0
LINE
  5
54F
  8
0
 10
-3.714951555757289
 20
-0.6733304072188275
 30
0.0
 11
-3.714951555757289
 21
-0.42333040721882786
 31
0.0
 67
0
  0
LINE
  5
550
  8
0
 10
-3.714951555757289
 20
-0.42333040721882786
 30
0.0
 11
-3.964951555757289
 21
-0.42333040721882786
 31
0.0
 67
0
  0
LINE
  5
551
  8
0
 10
-3.964951555757289
 20
-0.42333040721882786
 30
0.0
 11
-3.964951555757289
 21
-0.2203887596129448
 31
0.0
 67
0
  0
LINE
  5
552
  8
0
 10
-2.7149515557566763
 20
0.3466112403973085
 30
0.0
 11
-2.714951555756687
 21
0.2966112404002672
 31
0.0
 67
0
  0
LINE
  5
553
  8
0
 10
-4.729951555755634
 20
0.3466112403973085
 30
0.0
 11
-4.729951555755379
 21
0.2966112404002672
 31
0.0
 67
0
  0
POLYLINE
  5
554
  8
0
 66
1
 70
8
 10
0.0
 20
0.0
 30
0.0
 67
0
  0
VERTEX
  5
556
  8
0
 10
-4.729951555759232
 20
0.6466112403973057
 30
0.0
 40
0.0
 41
0.0
 42
0.0
 70
32
 67
0
  0
VERTEX
  5
557
  8
0
 10
-4.729951555759208
 20
1.1966112403825364
 30
0.0
 40
0.0
 41
0.0
 42
0.0
 70
32
 67
0
  0
SEQEND
  5
555
 67
0
  0
POLYLINE
  5
558
  8
0
 66
1
 70
8
 10
0.0
 20
0.0
 30
0.0
 67
0
  0
VERTEX
  5
55A
  8
0
 10
-4.929951555759234
 20
0.6466112403973057
 30
0.0
 40
0.0
 41
0.0
 42
0.0
 70
32
 67
0
  0
VERTEX
  5
55B
  8
0
 10
-4.929951555759234
 20
1.3966112403987834
 30
0.0
 40
0.0
 41
0.0
 42
0.0
 70
32
 67
0
  0
VERTEX
  5
55C
  8
0
 10
-3.014951555749505
 20
1.3966112403091693
 30
0.0
 40
0.0
 41
0.0
 42
0.0
 70
32
 67
0
  0
VERTEX
  5
55D
  8
0
 10
-3.014951555749505
 20
0.8966112403943496
 30
0.0
 40
0.0
 41
0.0
 42
0.0
 70
32
 67
0
  0
VERTEX
  5
55E
  8
0
 10
-2.514951555756684
 20
0.8966112403943496
 30
0.0
 40
0.0
 41
0.0
 42
0.0
 70
32
 67
0
  0
VERTEX
  5
55F
  8
0
 10
-2.514951555756684
 20
0.6466112403973057
 30
0.0
 40
0.0
 41
0.0
 42
0.0
 70
32
 67
0
  0
SEQEND
  5
559
 67
0
  0
LINE
  5
560
  8
0
 10
-4.729951555759232
 20
0.12961124038410793
 30
0.0
 11
-4.729951555759232
 21
0.17961124038114923
 31
0.0
 67
0
  0
POLYLINE
  5
561
  8
0
 66
1
 70
8
 10
0.0
 20
0.0
 30
0.0
 67
0
  0
VERTEX
  5
563
  8
0
 10
-4.929951555759234
 20
0.12961124038410793
 30
0.0
 40
0.0
 41
0.0
 42
0.0
 70
32
 67
0
  0
VERTEX
  5
564
  8
0
 10
-4.929951555759234
 20
0.3466112403973085
 30
0.0
 40
0.0
 41
0.0
 42
0.0
 70
32
 67
0
  0
SEQEND
  5
562
 67
0
  0
LINE
  5
565
  8
0
 10
4.159936759854583
 20
-0.17038875961588928
 30
0.0
 11
4.159936759854583
 21
-1.1103887596329958
 31
0.0
 67
0
  0
LINE
  5
566
  8
0
 10
2.244936759840222
 20
-1.1103887596329958
 30
0.0
 11
2.244936759840213
 21
-0.4203887596129337
 31
0.0
 67
0
  0
LINE
  5
567
  8
0
 10
2.244936759840213
 20
-0.4203887596129337
 30
0.0
 11
1.744936759852033
 21
-0.4203887596129337
 31
0.0
 67
0
  0
LINE
  5
568
  8
0
 10
1.744936759852033
 20
-0.4203887596129337
 30
0.0
 11
1.744936759852033
 21
-0.17038875961588928
 31
0.0
 67
0
  0
LINE
  5
569
  8
0
 10
3.3949367598483224
 20
-1.1103887596329958
 30
0.0
 11
3.3949367598483224
 21
-1.2603887595281258
 31
0.0
 67
0
  0
LINE
  5
56A
  8
0
 10
2.244936759840213
 20
-1.1103887596329958
 30
0.0
 11
3.3949367598483224
 21
-1.1103887596329958
 31
0.0
 67
0
  0
LINE
  5
56B
  8
0
 10
3.6949367598483036
 20
-1.1103887596329958
 30
0.0
 11
4.159936759854583
 21
-1.1103887596329958
 31
0.0
 67
0
  0
LINE
  5
56C
  8
0
 10
3.6949367598483036
 20
-1.1103887596329958
 30
0.0
 11
3.694936759848332
 21
-1.2603887595281107
 31
0.0
 67
0
  0
LINE
  5
56D
  8
0
 10
3.9599367598545925
 20
0.17961124038114923
 30
0.0
 11
1.9449367598520322
 21
0.17961124038114923
 31
0.0
 67
0
  0
LINE
  5
56E
  8
0
 10
1.9449367598520535
 20
-0.2203887596129448
 30
0.0
 11
1.9449367598520535
 21
-0.17038875961588928
 31
0.0
 67
0
  0
LINE
  5
56F
  8
0
 10
1.9449367598558833
 20
0.2966112404002672
 30
0.0
 11
3.9599367598545836
 21
0.2966112404002672
 31
0.0
 67
0
  0
LINE
  5
570
  8
0
 10
3.9599367598545836
 20
0.6966112403943612
 30
0.0
 11
3.9599367598545925
 21
0.6466112403973057
 31
0.0
 67
0
  0
LINE
  5
571
  8
0
 10
3.919936759824873
 20
0.696611240394347
 30
0.0
 11
3.9599367598545836
 21
0.6966112403943612
 31
0.0
 67
0
  0
LINE
  5
572
  8
0
 10
3.919936759824873
 20
0.696611240394347
 30
0.0
 11
2.7699367599256135
 21
1.1966112403505633
 31
0.0
 67
0
  0
LINE
  5
573
  8
0
 10
2.7699367599256135
 20
1.1966112403505633
 30
0.0
 11
1.9449367598520535
 21
1.1966112403825364
 31
0.0
 67
0
  0
LINE
  5
574
  8
0
 10
1.9449367598520535
 20
1.1966112403825364
 30
0.0
 11
1.944936759854862
 21
0.6466112403973057
 31
0.0
 67
0
  0
POLYLINE
  5
575
  8
0
 66
1
 70
8
 10
0.0
 20
0.0
 30
0.0
 67
0
  0
VERTEX
  5
577
  8
0
 10
1.9449367598520535
 20
1.1966112403825364
 30
0.0
 40
0.0
 41
0.0
 42
0.0
 70
32
 67
0
  0
VERTEX
  5
578
  8
0
 10
2.7699367599256135
 20
1.1966112403505633
 30
0.0
 40
0.0
 41
0.0
 42
0.0
 70
32
 67
0
  0
VERTEX
  5
579
  8
0
 10
3.919936759824873
 20
0.696611240394347
 30
0.0
 40
0.0
 41
0.0
 42
0.0
 70
32
 67
0
  0
VERTEX
  5
57A
  8
0
 10
3.9599367598545836
 20
0.6966112403943612
 30
0.0
 40
0.0
 41
0.0
 42
0.0
 70
32
 67
0
  0
VERTEX
  5
57B
  8
0
 10
3.9599367598545925
 20
0.6466112403973057
 30
0.0
 40
0.0
 41
0.0
 42
0.0
 70
32
 67
0
  0
SEQEND
  5
576
 67
0
  0
POLYLINE
  5
57C
  8
0
 66
1
 70
8
 10
0.0
 20
0.0
 30
0.0
 67
0
  0
VERTEX
  5
57E
  8
0
 10
4.159936759854583
 20
0.3466112403973085
 30
0.0
 40
0.0
 41
0.0
 42
0.0
 70
32
 67
0
  0
VERTEX
  5
57F
  8
0
 10
4.159936759854583
 20
0.12961124038410793
 30
0.0
 40
0.0
 41
0.0
 42
0.0
 70
32
 67
0
  0
SEQEND
  5
57D
 67
0
  0
LINE
  5
580
  8
0
 10
3.9599367598545925
 20
0.3466112403973085
 30
0.0
 11
4.159936759854583
 21
0.3466112403973085
 31
0.0
 67
0
  0
LINE
  5
581
  8
0
 10
3.9599367598545925
 20
0.6466112403973057
 30
0.0
 11
4.159936759854583
 21
0.6466112403973057
 31
0.0
 67
0
  0
LINE
  5
582
  8
0
 10
1.944936759854592
 20
0.3466112403973085
 30
0.0
 11
1.7449367598545926
 21
0.3466112403973085
 31
0.0
 67
0
  0
LINE
  5
583
  8
0
 10
1.9449367598546132
 20
0.6466112403973057
 30
0.0
 11
1.7449367598545926
 21
0.6466112403973057
 31
0.0
 67
0
  0
LINE
  5
584
  8
0
 10
1.9449367598546132
 20
-0.17038875961588928
 30
0.0
 11
1.7449367598545926
 21
-0.17038875961588928
 31
0.0
 67
0
  0
LINE
  5
585
  8
0
 10
1.944936759854592
 20
0.12961124038410793
 30
0.0
 11
1.7449367598545926
 21
0.12961124038410793
 31
0.0
 67
0
  0
LINE
  5
586
  8
0
 10
3.9599367598545925
 20
0.17961124038114923
 30
0.0
 11
3.9599367598545925
 21
0.12961124038410793
 31
0.0
 67
0
  0
LINE
  5
587
  8
0
 10
3.9599367598545836
 20
-0.17038875961588928
 30
0.0
 11
4.159936759854583
 21
-0.17038875961588928
 31
0.0
 67
0
  0
LINE
  5
588
  8
0
 10
3.9599367598545925
 20
0.12961124038410793
 30
0.0
 11
4.159936759854583
 21
0.12961124038410793
 31
0.0
 67
0
  0
LINE
  5
589
  8
0
 10
2.7099367598539725
 20
-0.2203887596129448
 30
0.0
 11
1.9449367598520535
 21
-0.2203887596129448
 31
0.0
 67
0
  0
LINE
  5
58A
  8
0
 10
3.9599367598545836
 20
-0.17038875961588928
 30
0.0
 11
3.9599367598539423
 21
-0.42333040721882786
 31
0.0
 67
0
  0
LINE
  5
58B
  8
0
 10
3.9599367598539423
 20
-0.42333040721882786
 30
0.0
 11
3.7099367598539423
 21
-0.42333040721882786
 31
0.0
 67
0
  0
LINE
  5
58C
  8
0
 10
3.7099367598539423
 20
-0.42333040721882786
 30
0.0
 11
3.7099367598539423
 21
-0.6733304072188275
 31
0.0
 67
0
  0
LINE
  5
58D
  8
0
 10
3.7099367598539423
 20
-0.6733304072188275
 30
0.0
 11
3.4599367598539423
 21
-0.6733304072188275
 31
0.0
 67
0
  0
LINE
  5
58E
  8
0
 10
3.4599367598539423
 20
-0.6733304072188275
 30
0.0
 11
3.4599367598539423
 21
-0.2103887596188514
 31
0.0
 67
0
  0
LINE
  5
58F
  8
0
 10
3.4599367598539423
 20
-0.2103887596188514
 30
0.0
 11
3.2099367598539725
 21
-0.2103887596188514
 31
0.0
 67
0
  0
LINE
  5
590
  8
0
 10
3.2099367598539725
 20
-0.2103887596188514
 30
0.0
 11
3.2099367598539725
 21
-0.6733304072188275
 31
0.0
 67
0
  0
LINE
  5
591
  8
0
 10
3.2099367598539725
 20
-0.6733304072188275
 30
0.0
 11
2.9599367598539725
 21
-0.6733304072188275
 31
0.0
 67
0
  0
LINE
  5
592
  8
0
 10
2.9599367598539725
 20
-0.6733304072188275
 30
0.0
 11
2.9599367598539725
 21
-0.42333040721882786
 31
0.0
 67
0
  0
LINE
  5
593
  8
0
 10
2.9599367598539725
 20
-0.42333040721882786
 30
0.0
 11
2.7099367598539725
 21
-0.42333040721882786
 31
0.0
 67
0
  0
LINE
  5
594
  8
0
 10
2.7099367598539725
 20
-0.42333040721882786
 30
0.0
 11
2.7099367598539725
 21
-0.2203887596129448
 31
0.0
 67
0
  0
LINE
  5
595
  8
0
 10
3.9599367598545925
 20
0.3466112403973085
 30
0.0
 11
3.9599367598545836
 21
0.2966112404002672
 31
0.0
 67
0
  0
LINE
  5
596
  8
0
 10
1.9449367598556329
 20
0.3466112403973085
 30
0.0
 11
1.9449367598558833
 21
0.2966112404002672
 31
0.0
 67
0
  0
POLYLINE
  5
597
  8
0
 66
1
 70
8
 10
0.0
 20
0.0
 30
0.0
 67
0
  0
VERTEX
  5
599
  8
0
 10
1.9449367598520322
 20
0.6466112403973057
 30
0.0
 40
0.0
 41
0.0
 42
0.0
 70
32
 67
0
  0
VERTEX
  5
59A
  8
0
 10
1.9449367598520535
 20
1.1966112403825364
 30
0.0
 40
0.0
 41
0.0
 42
0.0
 70
32
 67
0
  0
SEQEND
  5
598
 67
0
  0
POLYLINE
  5
59B
  8
0
 66
1
 70
8
 10
0.0
 20
0.0
 30
0.0
 67
0
  0
VERTEX
  5
59D
  8
0
 10
1.744936759852033
 20
0.6466112403973057
 30
0.0
 40
0.0
 41
0.0
 42
0.0
 70
32
 67
0
  0
VERTEX
  5
59E
  8
0
 10
1.744936759852033
 20
1.3966112403987834
 30
0.0
 40
0.0
 41
0.0
 42
0.0
 70
32
 67
0
  0
VERTEX
  5
59F
  8
0
 10
3.659936759861763
 20
1.3966112403091693
 30
0.0
 40
0.0
 41
0.0
 42
0.0
 70
32
 67
0
  0
VERTEX
  5
5A0
  8
0
 10
3.659936759861763
 20
0.8966112403943496
 30
0.0
 40
0.0
 41
0.0
 42
0.0
 70
32
 67
0
  0
VERTEX
  5
5A1
  8
0
 10
4.159936759854583
 20
0.8966112403943496
 30
0.0
 40
0.0
 41
0.0
 42
0.0
 70
32
 67
0
  0
VERTEX
  5
5A2
  8
0
 10
4.159936759854583
 20
0.6466112403973057
 30
0.0
 40
0.0
 41
0.0
 42
0.0
 70
32
 67
0
  0
SEQEND
  5
59C
 67
0
  0
LINE
  5
5A3
  8
0
 10
1.9449367598520322
 20
0.12961124038410793
 30
0.0
 11
1.9449367598520322
 21
0.17961124038114923
 31
0.0
 67
0
  0
POLYLINE
  5
5A4
  8
0
 66
1
 70
8
 10
0.0
 20
0.0
 30
0.0
 67
0
  0
VERTEX
  5
5A6
  8
0
 10
1.744936759852033
 20
0.12961124038410793
 30
0.0
 40
0.0
 41
0.0
 42
0.0
 70
32
 67
0
  0
VERTEX
  5
5A7
  8
0
 10
1.744936759852033
 20
0.3466112403973085
 30
0.0
 40
0.0
 41
0.0
 42
0.0
 70
32
 67
0
  0
SEQEND
  5
5A5
 67
0
  0
LINE
  5
5A8
  8
0
 10
8.071564286058384
 20
-0.20625952027091898
 30
0.0
 11
8.071564286058384
 21
-1.1462595202880257
 31
0.0
 67
0
  0
LINE
  5
5A9
  8
0
 10
6.156564286044022
 20
-1.1462595202880257
 30
0.0
 11
6.156564286044004
 21
-0.4562595202679634
 31
0.0
 67
0
  0
LINE
  5
5AA
  8
0
 10
6.156564286044004
 20
-0.4562595202679634
 30
0.0
 11
5.656564286055822
 21
-0.4562595202679634
 31
0.0
 67
0
  0
LINE
  5
5AB
  8
0
 10
5.656564286055822
 20
-0.4562595202679634
 30
0.0
 11
5.656564286055822
 21
-0.20625952027091898
 31
0.0
 67
0
  0
LINE
  5
5AC
  8
0
 10
7.306564286052124
 20
-1.1462595202880257
 30
0.0
 11
7.306564286052124
 21
-1.2962595201831557
 31
0.0
 67
0
  0
LINE
  5
5AD
  8
0
 10
6.156564286044004
 20
-1.1462595202880257
 30
0.0
 11
7.306564286052124
 21
-1.1462595202880257
 31
0.0
 67
0
  0
LINE
  5
5AE
  8
0
 10
7.606564286052103
 20
-1.1462595202880257
 30
0.0
 11
8.071564286058384
 21
-1.1462595202880257
 31
0.0
 67
0
  0
LINE
  5
5AF
  8
0
 10
7.606564286052103
 20
-1.1462595202880257
 30
0.0
 11
7.606564286052132
 21
-1.2962595201831397
 31
0.0
 67
0
  0
LINE
  5
5B0
  8
0
 10
7.871564286058403
 20
0.1437404797261195
 30
0.0
 11
5.856564286055843
 21
0.1437404797261195
 31
0.0
 67
0
  0
LINE
  5
5B1
  8
0
 10
5.856564286055853
 20
-0.2562595202679745
 30
0.0
 11
5.856564286055853
 21
-0.20625952027091898
 31
0.0
 67
0
  0
LINE
  5
5B2
  8
0
 10
5.856564286059683
 20
0.2607404797452375
 30
0.0
 11
7.871564286058382
 21
0.2607404797452375
 31
0.0
 67
0
  0
LINE
  5
5B3
  8
0
 10
7.871564286058382
 20
0.6607404797393315
 30
0.0
 11
7.871564286058403
 21
0.610740479742276
 31
0.0
 67
0
  0
LINE
  5
5B4
  8
0
 10
7.831564286028671
 20
0.6607404797393174
 30
0.0
 11
7.871564286058382
 21
0.6607404797393315
 31
0.0
 67
0
  0
LINE
  5
5B5
  8
0
 10
7.831564286028671
 20
0.6607404797393174
 30
0.0
 11
6.681564286129413
 21
1.1607404796955334
 31
0.0
 67
0
  0
LINE
  5
5B6
  8
0
 10
6.681564286129413
 20
1.1607404796955334
 30
0.0
 11
5.856564286055853
 21
1.1607404797275074
 31
0.0
 67
0
  0
LINE
  5
5B7
  8
0
 10
5.856564286055853
 20
1.1607404797275074
 30
0.0
 11
5.8565642860586635
 21
0.610740479742276
 31
0.0
 67
0
  0
POLYLINE
  5
5B8
  8
0
 66
1
 70
8
 10
0.0
 20
0.0
 30
0.0
 67
0
  0
VERTEX
  5
5BA
  8
0
 10
5.856564286055853
 20
1.1607404797275074
 30
0.0
 40
0.0
 41
0.0
 42
0.0
 70
32
 67
0
  0
VERTEX
  5
5BB
  8
0
 10
6.681564286129413
 20
1.1607404796955334
 30
0.0
 40
0.0
 41
0.0
 42
0.0
 70
32
 67
0
  0
VERTEX
  5
5BC
  8
0
 10
7.831564286028671
 20
0.6607404797393174
 30
0.0
 40
0.0
 41
0.0
 42
0.0
 70
32
 67
0
  0
VERTEX
  5
5BD
  8
0
 10
7.871564286058382
 20
0.6607404797393315
 30
0.0
 40
0.0
 41
0.0
 42
0.0
 70
32
 67
0
  0
VERTEX
  5
5BE
  8
0
 10
7.871564286058403
 20
0.610740479742276
 30
0.0
 40
0.0
 41
0.0
 42
0.0
 70
32
 67
0
  0
SEQEND
  5
5B9
 67
0
  0
POLYLINE
  5
5BF
  8
0
 66
1
 70
8
 10
0.0
 20
0.0
 30
0.0
 67
0
  0
VERTEX
  5
5C1
  8
0
 10
8.071564286058384
 20
0.3107404797422788
 30
0.0
 40
0.0
 41
0.0
 42
0.0
 70
32
 67
0
  0
VERTEX
  5
5C2
  8
0
 10
8.071564286058384
 20
0.09374047972907822
 30
0.0
 40
0.0
 41
0.0
 42
0.0
 70
32
 67
0
  0
SEQEND
  5
5C0
 67
0
  0
LINE
  5
5C3
  8
0
 10
7.871564286058403
 20
0.3107404797422788
 30
0.0
 11
8.071564286058384
 21
0.3107404797422788
 31
0.0
 67
0
  0
LINE
  5
5C4
  8
0
 10
7.871564286058403
 20
0.610740479742276
 30
0.0
 11
8.071564286058384
 21
0.610740479742276
 31
0.0
 67
0
  0
LINE
  5
5C5
  8
0
 10
5.8565642860583935
 20
0.3107404797422788
 30
0.0
 11
5.6565642860583925
 21
0.3107404797422788
 31
0.0
 67
0
  0
LINE
  5
5C6
  8
0
 10
5.856564286058413
 20
0.610740479742276
 30
0.0
 11
5.6565642860583925
 21
0.610740479742276
 31
0.0
 67
0
  0
LINE
  5
5C7
  8
0
 10
5.856564286058413
 20
-0.20625952027091898
 30
0.0
 11
5.6565642860583925
 21
-0.20625952027091898
 31
0.0
 67
0
  0
LINE
  5
5C8
  8
0
 10
5.8565642860583935
 20
0.09374047972907822
 30
0.0
 11
5.6565642860583925
 21
0.09374047972907822
 31
0.0
 67
0
  0
LINE
  5
5C9
  8
0
 10
7.871564286058403
 20
0.1437404797261195
 30
0.0
 11
7.871564286058403
 21
0.09374047972907822
 31
0.0
 67
0
  0
LINE
  5
5CA
  8
0
 10
7.871564286058382
 20
-0.20625952027091898
 30
0.0
 11
8.071564286058384
 21
-0.20625952027091898
 31
0.0
 67
0
  0
LINE
  5
5CB
  8
0
 10
7.871564286058403
 20
0.09374047972907822
 30
0.0
 11
8.071564286058384
 21
0.09374047972907822
 31
0.0
 67
0
  0
LINE
  5
5CC
  8
0
 10
6.621564286057774
 20
-0.2562595202679745
 30
0.0
 11
5.856564286055853
 21
-0.2562595202679745
 31
0.0
 67
0
  0
LINE
  5
5CD
  8
0
 10
7.871564286058382
 20
-0.20625952027091898
 30
0.0
 11
7.871564286057742
 21
-0.45920116787385756
 31
0.0
 67
0
  0
LINE
  5
5CE
  8
0
 10
7.871564286057742
 20
-0.45920116787385756
 30
0.0
 11
7.621564286057742
 21
-0.45920116787385756
 31
0.0
 67
0
  0
LINE
  5
5CF
  8
0
 10
7.621564286057742
 20
-0.45920116787385756
 30
0.0
 11
7.621564286057742
 21
-0.7092011678738572
 31
0.0
 67
0
  0
LINE
  5
5D0
  8
0
 10
7.621564286057742
 20
-0.7092011678738572
 30
0.0
 11
7.371564286057742
 21
-0.7092011678738572
 31
0.0
 67
0
  0
LINE
  5
5D1
  8
0
 10
7.371564286057742
 20
-0.7092011678738572
 30
0.0
 11
7.371564286057742
 21
-0.2462595202738811
 31
0.0
 67
0
  0
LINE
  5
5D2
  8
0
 10
7.371564286057742
 20
-0.2462595202738811
 30
0.0
 11
7.121564286057774
 21
-0.2462595202738811
 31
0.0
 67
0
  0
LINE
  5
5D3
  8
0
 10
7.121564286057774
 20
-0.2462595202738811
 30
0.0
 11
7.121564286057774
 21
-0.7092011678738572
 31
0.0
 67
0
  0
LINE
  5
5D4
  8
0
 10
7.121564286057774
 20
-0.7092011678738572
 30
0.0
 11
6.871564286057774
 21
-0.7092011678738572
 31
0.0
 67
0
  0
LINE
  5
5D5
  8
0
 10
6.871564286057774
 20
-0.7092011678738572
 30
0.0
 11
6.871564286057774
 21
-0.45920116787385756
 31
0.0
 67
0
  0
LINE
  5
5D6
  8
0
 10
6.871564286057774
 20
-0.45920116787385756
 30
0.0
 11
6.621564286057774
 21
-0.45920116787385756
 31
0.0
 67
0
  0
LINE
  5
5D7
  8
0
 10
6.621564286057774
 20
-0.45920116787385756
 30
0.0
 11
6.621564286057774
 21
-0.2562595202679745
 31
0.0
 67
0
  0
LINE
  5
5D8
  8
0
 10
7.871564286058403
 20
0.3107404797422788
 30
0.0
 11
7.871564286058382
 21
0.2607404797452375
 31
0.0
 67
0
  0
LINE
  5
5D9
  8
0
 10
5.856564286059433
 20
0.3107404797422788
 30
0.0
 11
5.856564286059683
 21
0.2607404797452375
 31
0.0
 67
0
  0
POLYLINE
  5
5DA
  8
0
 66
1
 70
8
 10
0.0
 20
0.0
 30
0.0
 67
0
  0
VERTEX
  5
5DC
  8
0
 10
5.856564286055843
 20
0.610740479742276
 30
0.0
 40
0.0
 41
0.0
 42
0.0
 70
32
 67
0
  0
VERTEX
  5
5DD
  8
0
 10
5.856564286055853
 20
1.1607404797275074
 30
0.0
 40
0.0
 41
0.0
 42
0.0
 70
32
 67
0
  0
SEQEND
  5
5DB
 67
0
  0
POLYLINE
  5
5DE
  8
0
 66
1
 70
8
 10
0.0
 20
0.0
 30
0.0
 67
0
  0
VERTEX
  5
5E0
  8
0
 10
5.656564286055822
 20
0.610740479742276
 30
0.0
 40
0.0
 41
0.0
 42
0.0
 70
32
 67
0
  0
VERTEX
  5
5E1
  8
0
 10
5.656564286055822
 20
1.3607404797437523
 30
0.0
 40
0.0
 41
0.0
 42
0.0
 70
32
 67
0
  0
VERTEX
  5
5E2
  8
0
 10
7.571564286065561
 20
1.3607404796541394
 30
0.0
 40
0.0
 41
0.0
 42
0.0
 70
32
 67
0
  0
VERTEX
  5
5E3
  8
0
 10
7.571564286065561
 20
0.8607404797393199
 30
0.0
 40
0.0
 41
0.0
 42
0.0
 70
32
 67
0
  0
VERTEX
  5
5E4
  8
0
 10
8.071564286058384
 20
0.8607404797393199
 30
0.0
 40
0.0
 41
0.0
 42
0.0
 70
32
 67
0
  0
VERTEX
  5
5E5
  8
0
 10
8.071564286058384
 20
0.610740479742276
 30
0.0
 40
0.0
 41
0.0
 42
0.0
 70
32
 67
0
  0
SEQEND
  5
5DF
 67
0
  0
LINE
  5
5E6
  8
0
 10
5.856564286055843
 20
0.09374047972907822
 30
0.0
 11
5.856564286055843
 21
0.1437404797261195
 31
0.0
 67
0
  0
POLYLINE
  5
5E7
  8
0
 66
1
 70
8
 10
0.0
 20
0.0
 30
0.0
 67
0
  0
VERTEX
  5
5E9
  8
0
 10
5.656564286055822
 20
0.09374047972907822
 30
0.0
 40
0.0
 41
0.0
 42
0.0
 70
32
 67
0
  0
VERTEX
  5
5EA
  8
0
 10
5.656564286055822
 20
0.3107404797422788
 30
0.0
 40
0.0
 41
0.0
 42
0.0
 70
32
 67
0
  0
SEQEND
  5
5E8
 67
0
  0
CIRCLE
  5
5EB
  8
0
 10
-11.5
 20
-11.5
 30
0.0
 40
0.4
 67
0
  0
CIRCLE
  5
5EC
  8
0
 10
-10.14
 20
-11.5
 30
0.0
 40
0.4
 67
0
  0
CIRCLE
  5
5ED
  8
0
 10
-8.78
 20
-11.5
 30
0.0
 40
0.4
 67
0
  0
CIRCLE
  5
5EE
  8
0
 10
-7.42
 20
-11.5
 30
0.0
 40
0.4
 67
0
  0
CIRCLE
  5
5EF
  8
0
 10
-6.06
 20
-11.5
 30
0.0
 40
0.4
 67
0
  0
LINE
  5
5F0
  8
0
 10
36.750000000000014
 20
-7.249999999999986
 30
0.0
 11
36.750000000000014
 21
-7.071540326368136
 31
0.0
 67
0
  0
LINE
  5
5F1
  8
0
 10
36.750000000000014
 20
-7.071540326368136
 30
0.0
 11
36.920254889728724
 21
-7.071540326368136
 31
0.0
 67
0
  0
LINE
  5
5F2
  8
0
 10
36.920254889728724
 20
-7.071540326368136
 30
0.0
 11
36.920254889728724
 21
-7.499999999999986
 31
0.0
 67
0
  0
LINE
  5
5F3
  8
0
 10
36.920254889728724
 20
-7.499999999999986
 30
0.0
 11
36.750000000000014
 21
-7.499999999999986
 31
0.0
 67
0
  0
LINE
  5
5F4
  8
0
 10
34.079745110271254
 20
-7.499999999999986
 30
0.0
 11
34.250000000000014
 21
-7.499999999999986
 31
0.0
 67
0
  0
LINE
  5
5F5
  8
0
 10
34.079745110271254
 20
-7.071540326368136
 30
0.0
 11
34.079745110271254
 21
-7.499999999999986
 31
0.0
 67
0
  0
LINE
  5
5F6
  8
0
 10
34.250000000000014
 20
-7.071540326368136
 30
0.0
 11
34.079745110271254
 21
-7.071540326368136
 31
0.0
 67
0
  0
LINE
  5
5F7
  8
0
 10
34.250000000000014
 20
-7.249999999999986
 30
0.0
 11
34.250000000000014
 21
-7.071540326368136
 31
0.0
 67
0
  0
LINE
  5
5F8
  8
0
 10
36.750000000000014
 20
-7.249999999999986
 30
0.0
 11
34.250000000000014
 21
-7.249999999999986
 31
0.0
 67
0
  0
LINE
  5
5F9
  8
0
 10
34.250000000000014
 20
-7.499999999999986
 30
0.0
 11
36.750000000000014
 21
-7.499999999999986
 31
0.0
 67
0
  0
LINE
  5
5FA
  8
0
 10
33.250000000000014
 20
-7.249999999999986
 30
0.0
 11
33.250000000000014
 21
-7.071540326368149
 31
0.0
 67
0
  0
LINE
  5
5FB
  8
0
 10
33.250000000000014
 20
-7.071540326368149
 30
0.0
 11
33.42025488972873
 21
-7.071540326368149
 31
0.0
 67
0
  0
LINE
  5
5FC
  8
0
 10
33.42025488972873
 20
-7.071540326368149
 30
0.0
 11
33.42025488972873
 21
-7.499999999999986
 31
0.0
 67
0
  0
LINE
  5
5FD
  8
0
 10
33.42025488972873
 20
-7.499999999999986
 30
0.0
 11
33.250000000000014
 21
-7.499999999999986
 31
0.0
 67
0
  0
LINE
  5
5FE
  8
0
 10
30.579745110271244
 20
-7.499999999999986
 30
0.0
 11
30.750000000000004
 21
-7.499999999999986
 31
0.0
 67
0
  0
LINE
  5
5FF
  8
0
 10
30.579745110271244
 20
-7.071540326368149
 30
0.0
 11
30.579745110271244
 21
-7.499999999999986
 31
0.0
 67
0
  0
LINE
  5
600
  8
0
 10
30.750000000000004
 20
-7.071540326368149
 30
0.0
 11
30.579745110271244
 21
-7.071540326368149
 31
0.0
 67
0
  0
LINE
  5
601
  8
0
 10
30.750000000000004
 20
-7.249999999999986
 30
0.0
 11
30.750000000000004
 21
-7.071540326368149
 31
0.0
 67
0
  0
LINE
  5
602
  8
0
 10
33.250000000000014
 20
-7.249999999999986
 30
0.0
 11
30.750000000000004
 21
-7.249999999999986
 31
0.0
 67
0
  0
LINE
  5
603
  8
0
 10
30.750000000000004
 20
-7.499999999999986
 30
0.0
 11
33.250000000000014
 21
-7.499999999999986
 31
0.0
 67
0
  0
LINE
  5
604
  8
0
 10
29.750000000000004
 20
-7.249999999999986
 30
0.0
 11
29.750000000000004
 21
-7.071540326368149
 31
0.0
 67
0
  0
LINE
  5
605
  8
0
 10
29.750000000000004
 20
-7.071540326368149
 30
0.0
 11
29.920254889728724
 21
-7.071540326368149
 31
0.0
 67
0
  0
LINE
  5
606
  8
0
 10
29.920254889728724
 20
-7.071540326368149
 30
0.0
 11
29.920254889728724
 21
-7.499999999999986
 31
0.0
 67
0
  0
LINE
  5
607
  8
0
 10
29.920254889728724
 20
-7.499999999999986
 30
0.0
 11
29.750000000000004
 21
-7.499999999999986
 31
0.0
 67
0
  0
LINE
  5
608
  8
0
 10
27.079745110271254
 20
-7.499999999999986
 30
0.0
 11
27.250000000000004
 21
-7.499999999999986
 31
0.0
 67
0
  0
LINE
  5
609
  8
0
 10
27.079745110271254
 20
-7.071540326368149
 30
0.0
 11
27.079745110271254
 21
-7.499999999999986
 31
0.0
 67
0
  0
LINE
  5
60A
  8
0
 10
27.250000000000004
 20
-7.071540326368149
 30
0.0
 11
27.079745110271254
 21
-7.071540326368149
 31
0.0
 67
0
  0
LINE
  5
60B
  8
0
 10
27.250000000000004
 20
-7.249999999999986
 30
0.0
 11
27.250000000000004
 21
-7.071540326368149
 31
0.0
 67
0
  0
LINE
  5
60C
  8
0
 10
29.750000000000004
 20
-7.249999999999986
 30
0.0
 11
27.250000000000004
 21
-7.249999999999986
 31
0.0
 67
0
  0
LINE
  5
60D
  8
0
 10
27.250000000000004
 20
-7.499999999999986
 30
0.0
 11
29.750000000000004
 21
-7.499999999999986
 31
0.0
 67
0
  0
LINE
  5
60E
  8
0
 10
26.250000000000004
 20
-7.25
 30
0.0
 11
26.250000000000004
 21
-7.071540326368149
 31
0.0
 67
0
  0
LINE
  5
60F
  8
0
 10
26.250000000000004
 20
-7.071540326368149
 30
0.0
 11
26.420254889728714
 21
-7.071540326368149
 31
0.0
 67
0
  0
LINE
  5
610
  8
0
 10
26.420254889728714
 20
-7.071540326368149
 30
0.0
 11
26.420254889728714
 21
-7.5
 31
0.0
 67
0
  0
LINE
  5
611
  8
0
 10
26.420254889728714
 20
-7.5
 30
0.0
 11
26.250000000000004
 21
-7.5
 31
0.0
 67
0
  0
LINE
  5
612
  8
0
 10
23.579745110271254
 20
-7.5
 30
0.0
 11
23.750000000000007
 21
-7.5
 31
0.0
 67
0
  0
LINE
  5
613
  8
0
 10
23.579745110271254
 20
-7.071540326368149
 30
0.0
 11
23.579745110271254
 21
-7.5
 31
0.0
 67
0
  0
LINE
  5
614
  8
0
 10
23.750000000000007
 20
-7.071540326368149
 30
0.0
 11
23.579745110271254
 21
-7.071540326368149
 31
0.0
 67
0
  0
LINE
  5
615
  8
0
 10
23.750000000000007
 20
-7.25
 30
0.0
 11
23.750000000000007
 21
-7.071540326368149
 31
0.0
 67
0
  0
LINE
  5
616
  8
0
 10
26.250000000000004
 20
-7.25
 30
0.0
 11
23.750000000000007
 21
-7.25
 31
0.0
 67
0
  0
LINE
  5
617
  8
0
 10
23.750000000000007
 20
-7.5
 30
0.0
 11
26.250000000000004
 21
-7.5
 31
0.0
 67
0
  0
LINE
  5
618
  8
0
 10
22.750000000000007
 20
-7.25
 30
0.0
 11
22.750000000000007
 21
-7.071540326368149
 31
0.0
 67
0
  0
LINE
  5
619
  8
0
 10
22.750000000000007
 20
-7.071540326368149
 30
0.0
 11
22.920254889728717
 21
-7.071540326368149
 31
0.0
 67
0
  0
LINE
  5
61A
  8
0
 10
22.920254889728717
 20
-7.071540326368149
 30
0.0
 11
22.920254889728717
 21
-7.5
 31
0.0
 67
0
  0
LINE
  5
61B
  8
0
 10
22.920254889728717
 20
-7.5
 30
0.0
 11
22.750000000000007
 21
-7.5
 31
0.0
 67
0
  0
LINE
  5
61C
  8
0
 10
20.079745110271254
 20
-7.5
 30
0.0
 11
20.250000000000007
 21
-7.5
 31
0.0
 67
0
  0
LINE
  5
61D
  8
0
 10
20.079745110271254
 20
-7.071540326368149
 30
0.0
 11
20.079745110271254
 21
-7.5
 31
0.0
 67
0
  0
LINE
  5
61E
  8
0
 10
20.250000000000007
 20
-7.071540326368149
 30
0.0
 11
20.079745110271254
 21
-7.071540326368149
 31
0.0
 67
0
  0
LINE
  5
61F
  8
0
 10
20.250000000000007
 20
-7.25
 30
0.0
 11
20.250000000000007
 21
-7.071540326368149
 31
0.0
 67
0
  0
LINE
  5
620
  8
0
 10
22.750000000000007
 20
-7.25
 30
0.0
 11
20.250000000000007
 21
-7.25
 31
0.0
 67
0
  0
LINE
  5
621
  8
0
 10
20.250000000000007
 20
-7.5
 30
0.0
 11
22.750000000000007
 21
-7.5
 31
0.0
 67
0
  0
LINE
  5
622
  8
0
 10
19.250000000000007
 20
-7.25
 30
0.0
 11
19.250000000000007
 21
-7.071540326368149
 31
0.0
 67
0
  0
LINE
  5
623
  8
0
 10
19.250000000000007
 20
-7.071540326368149
 30
0.0
 11
19.420254889728717
 21
-7.071540326368149
 31
0.0
 67
0
  0
LINE
  5
624
  8
0
 10
19.420254889728717
 20
-7.071540326368149
 30
0.0
 11
19.420254889728717
 21
-7.5
 31
0.0
 67
0
  0
LINE
  5
625
  8
0
 10
19.420254889728717
 20
-7.5
 30
0.0
 11
19.250000000000007
 21
-7.5
 31
0.0
 67
0
  0
LINE
  5
626
  8
0
 10
16.57974511027125
 20
-7.5
 30
0.0
 11
16.750000000000007
 21
-7.5
 31
0.0
 67
0
  0
LINE
  5
627
  8
0
 10
16.57974511027125
 20
-7.071540326368149
 30
0.0
 11
16.57974511027125
 21
-7.5
 31
0.0
 67
0
  0
LINE
  5
628
  8
0
 10
16.750000000000007
 20
-7.071540326368149
 30
0.0
 11
16.57974511027125
 21
-7.071540326368149
 31
0.0
 67
0
  0
LINE
  5
629
  8
0
 10
16.750000000000007
 20
-7.25
 30
0.0
 11
16.750000000000007
 21
-7.071540326368149
 31
0.0
 67
0
  0
LINE
  5
62A
  8
0
 10
19.250000000000007
 20
-7.25
 30
0.0
 11
16.750000000000007
 21
-7.25
 31
0.0
 67
0
  0
LINE
  5
62B
  8
0
 10
16.750000000000007
 20
-7.5
 30
0.0
 11
19.250000000000007
 21
-7.5
 31
0.0
 67
0
  0
LINE
  5
62C
  8
0
 10
15.750000000000005
 20
-7.25
 30
0.0
 11
15.750000000000005
 21
-7.071540326368149
 31
0.0
 67
0
  0
LINE
  5
62D
  8
0
 10
15.750000000000005
 20
-7.071540326368149
 30
0.0
 11
15.920254889728715
 21
-7.071540326368149
 31
0.0
 67
0
  0
LINE
  5
62E
  8
0
 10
15.920254889728715
 20
-7.071540326368149
 30
0.0
 11
15.920254889728715
 21
-7.5
 31
0.0
 67
0
  0
LINE
  5
62F
  8
0
 10
15.920254889728715
 20
-7.5
 30
0.0
 11
15.750000000000005
 21
-7.5
 31
0.0
 67
0
  0
LINE
  5
630
  8
0
 10
13.079745110271235
 20
-7.5
 30
0.0
 11
13.250000000000014
 21
-7.5
 31
0.0
 67
0
  0
LINE
  5
631
  8
0
 10
13.079745110271235
 20
-7.071540326368149
 30
0.0
 11
13.079745110271235
 21
-7.5
 31
0.0
 67
0
  0
LINE
  5
632
  8
0
 10
13.250000000000014
 20
-7.071540326368149
 30
0.0
 11
13.079745110271235
 21
-7.071540326368149
 31
0.0
 67
0
  0
LINE
  5
633
  8
0
 10
13.250000000000014
 20
-7.25
 30
0.0
 11
13.250000000000014
 21
-7.071540326368149
 31
0.0
 67
0
  0
LINE
  5
634
  8
0
 10
15.750000000000005
 20
-7.25
 30
0.0
 11
13.250000000000014
 21
-7.25
 31
0.0
 67
0
  0
LINE
  5
635
  8
0
 10
13.250000000000014
 20
-7.5
 30
0.0
 11
15.750000000000005
 21
-7.5
 31
0.0
 67
0
  0
LINE
  5
636
  8
0
 10
12.499999999999988
 20
12.5
 30
0.0
 11
37.500000000000014
 21
12.5
 31
0.0
 67
0
  0
CIRCLE
  5
637
  8
0
 10
34.499999999999986
 20
9.5
 30
0.0
 40
0.7899999999999996
 67
0
  0
LINE
  5
638
  8
0
 10
37.500000000000014
 20
12.5
 30
0.0
 11
37.500000000000014
 21
-12.5
 31
0.0
 67
0
  0
LINE
  5
639
  8
0
 10
12.499999999999988
 20
12.5
 30
0.0
 11
12.499999999999988
 21
-12.5
 31
0.0
 67
0
  0
CIRCLE
  5
63A
  8
0
 10
15.499999999999991
 20
9.5
 30
0.0
 40
0.7900000000000001
 67
0
  0
LINE
  5
63B
  8
0
 10
13.117004665099893
 20
11.0341158617
 30
0.0
 11
13.702458275499893
 21
11.7997090444
 31
0.0
 67
0
  0
LINE
  5
63C
  8
0
 10
13.702458275499893
 20
11.7997090444
 30
0.0
 11
14.265394439199994
 21
11.0341158617
 31
0.0
 67
0
  0
LINE
  5
63D
  8
0
 10
14.265394439199994
 20
11.0341158617
 30
0.0
 11
13.117004665099893
 21
11.0341158617
 31
0.0
 67
0
  0
CIRCLE
  5
63E
  8
0
 10
34.499999999999986
 20
-9.5
 30
0.0
 40
0.7899999999999997
 67
0
  0
LINE
  5
63F
  8
0
 10
12.499999999999988
 20
-12.5
 30
0.0
 11
37.500000000000014
 21
-12.5
 31
0.0
 67
0
  0
CIRCLE
  5
640
  8
0
 10
15.499999999999991
 20
-9.5
 30
0.0
 40
0.7900000000000001
 67
0
  0
LINE
  5
641
  8
0
 10
24.999999999999993
 20
1.5635910568959164e-17
 30
0.0
 11
25.999999999999993
 21
1.5635910568959164e-17
 31
0.0
 67
0
  0
LINE
  5
642
  8
0
 10
24.999999999999993
 20
1.5635910568959164e-17
 30
0.0
 11
24.999999999999993
 21
0.9999999999999997
 31
0.0
 67
0
  0
LINE
  5
643
  8
0
 10
24.999999999999993
 20
1.5635910568959164e-17
 30
0.0
 11
23.99999999999999
 21
1.5635910568959164e-17
 31
0.0
 67
0
  0
LINE
  5
644
  8
0
 10
24.999999999999993
 20
1.5635910568959164e-17
 30
0.0
 11
24.999999999999993
 21
-0.9999999999999998
 31
0.0
 67
0
  0
LINE
  5
645
  8
0
 10
14.999999999999991
 20
1.5635910568959164e-17
 30
0.0
 11
15.99999999999999
 21
1.5635910568959164e-17
 31
0.0
 67
0
  0
LINE
  5
646
  8
0
 10
14.999999999999991
 20
1.5635910568959164e-17
 30
0.0
 11
14.999999999999991
 21
0.9999999999999997
 31
0.0
 67
0
  0
LINE
  5
647
  8
0
 10
14.999999999999991
 20
1.5635910568959164e-17
 30
0.0
 11
13.999999999999995
 21
1.5635910568959164e-17
 31
0.0
 67
0
  0
LINE
  5
648
  8
0
 10
14.999999999999991
 20
1.5635910568959164e-17
 30
0.0
 11
14.999999999999991
 21
-0.9999999999999998
 31
0.0
 67
0
  0
LINE
  5
649
  8
0
 10
34.99999999999999
 20
1.5635910568959164e-17
 30
0.0
 11
35.99999999999999
 21
1.5635910568959164e-17
 31
0.0
 67
0
  0
LINE
  5
64A
  8
0
 10
34.99999999999999
 20
1.5635910568959164e-17
 30
0.0
 11
34.99999999999999
 21
0.9999999999999997
 31
0.0
 67
0
  0
LINE
  5
64B
  8
0
 10
34.99999999999999
 20
1.5635910568959164e-17
 30
0.0
 11
33.99999999999999
 21
1.5635910568959164e-17
 31
0.0
 67
0
  0
LINE
  5
64C
  8
0
 10
34.99999999999999
 20
1.5635910568959164e-17
 30
0.0
 11
34.99999999999999
 21
-0.9999999999999998
 31
0.0
 67
0
  0
LINE
  5
64D
  8
0
 10
36.750000000000014
 20
7.249999999999983
 30
0.0
 11
36.750000000000014
 21
7.071540326368131
 31
0.0
 67
0
  0
LINE
  5
64E
  8
0
 10
36.750000000000014
 20
7.071540326368131
 30
0.0
 11
36.920254889728724
 21
7.071540326368131
 31
0.0
 67
0
  0
LINE
  5
64F
  8
0
 10
36.920254889728724
 20
7.071540326368131
 30
0.0
 11
36.920254889728724
 21
7.499999999999983
 31
0.0
 67
0
  0
LINE
  5
650
  8
0
 10
36.920254889728724
 20
7.499999999999983
 30
0.0
 11
36.750000000000014
 21
7.499999999999983
 31
0.0
 67
0
  0
LINE
  5
651
  8
0
 10
34.079745110271254
 20
7.499999999999983
 30
0.0
 11
34.250000000000014
 21
7.499999999999983
 31
0.0
 67
0
  0
LINE
  5
652
  8
0
 10
34.079745110271254
 20
7.071540326368131
 30
0.0
 11
34.079745110271254
 21
7.499999999999983
 31
0.0
 67
0
  0
LINE
  5
653
  8
0
 10
34.250000000000014
 20
7.071540326368131
 30
0.0
 11
34.079745110271254
 21
7.071540326368131
 31
0.0
 67
0
  0
LINE
  5
654
  8
0
 10
34.250000000000014
 20
7.249999999999983
 30
0.0
 11
34.250000000000014
 21
7.071540326368131
 31
0.0
 67
0
  0
LINE
  5
655
  8
0
 10
36.750000000000014
 20
7.249999999999983
 30
0.0
 11
34.250000000000014
 21
7.249999999999983
 31
0.0
 67
0
  0
LINE
  5
656
  8
0
 10
34.250000000000014
 20
7.499999999999983
 30
0.0
 11
36.750000000000014
 21
7.499999999999983
 31
0.0
 67
0
  0
LINE
  5
657
  8
0
 10
33.250000000000014
 20
7.249999999999983
 30
0.0
 11
33.250000000000014
 21
7.071540326368147
 31
0.0
 67
0
  0
LINE
  5
658
  8
0
 10
33.250000000000014
 20
7.071540326368147
 30
0.0
 11
33.42025488972873
 21
7.071540326368147
 31
0.0
 67
0
  0
LINE
  5
659
  8
0
 10
33.42025488972873
 20
7.071540326368147
 30
0.0
 11
33.42025488972873
 21
7.499999999999983
 31
0.0
 67
0
  0
LINE
  5
65A
  8
0
 10
33.42025488972873
 20
7.499999999999983
 30
0.0
 11
33.250000000000014
 21
7.499999999999983
 31
0.0
 67
0
  0
LINE
  5
65B
  8
0
 10
30.579745110271244
 20
7.499999999999983
 30
0.0
 11
30.750000000000004
 21
7.499999999999983
 31
0.0
 67
0
  0
LINE
  5
65C
  8
0
 10
30.579745110271244
 20
7.071540326368147
 30
0.0
 11
30.579745110271244
 21
7.499999999999983
 31
0.0
 67
0
  0
LINE
  5
65D
  8
0
 10
30.750000000000004
 20
7.071540326368147
 30
0.0
 11
30.579745110271244
 21
7.071540326368147
 31
0.0
 67
0
  0
LINE
  5
65E
  8
0
 10
30.750000000000004
 20
7.249999999999983
 30
0.0
 11
30.750000000000004
 21
7.071540326368147
 31
0.0
 67
0
  0
LINE
  5
65F
  8
0
 10
33.250000000000014
 20
7.249999999999983
 30
0.0
 11
30.750000000000004
 21
7.249999999999983
 31
0.0
 67
0
  0
LINE
  5
660
  8
0
 10
30.750000000000004
 20
7.499999999999983
 30
0.0
 11
33.250000000000014
 21
7.499999999999983
 31
0.0
 67
0
  0
LINE
  5
661
  8
0
 10
29.750000000000004
 20
7.249999999999983
 30
0.0
 11
29.750000000000004
 21
7.071540326368147
 31
0.0
 67
0
  0
LINE
  5
662
  8
0
 10
29.750000000000004
 20
7.071540326368147
 30
0.0
 11
29.920254889728724
 21
7.071540326368147
 31
0.0
 67
0
  0
LINE
  5
663
  8
0
 10
29.920254889728724
 20
7.071540326368147
 30
0.0
 11
29.920254889728724
 21
7.499999999999983
 31
0.0
 67
0
  0
LINE
  5
664
  8
0
 10
29.920254889728724
 20
7.499999999999983
 30
0.0
 11
29.750000000000004
 21
7.499999999999983
 31
0.0
 67
0
  0
LINE
  5
665
  8
0
 10
27.079745110271254
 20
7.499999999999983
 30
0.0
 11
27.250000000000004
 21
7.499999999999983
 31
0.0
 67
0
  0
LINE
  5
666
  8
0
 10
27.079745110271254
 20
7.071540326368147
 30
0.0
 11
27.079745110271254
 21
7.499999999999983
 31
0.0
 67
0
  0
LINE
  5
667
  8
0
 10
27.250000000000004
 20
7.071540326368147
 30
0.0
 11
27.079745110271254
 21
7.071540326368147
 31
0.0
 67
0
  0
LINE
  5
668
  8
0
 10
27.250000000000004
 20
7.249999999999983
 30
0.0
 11
27.250000000000004
 21
7.071540326368147
 31
0.0
 67
0
  0
LINE
  5
669
  8
0
 10
29.750000000000004
 20
7.249999999999983
 30
0.0
 11
27.250000000000004
 21
7.249999999999983
 31
0.0
 67
0
  0
LINE
  5
66A
  8
0
 10
27.250000000000004
 20
7.499999999999983
 30
0.0
 11
29.750000000000004
 21
7.499999999999983
 31
0.0
 67
0
  0
LINE
  5
66B
  8
0
 10
26.250000000000004
 20
7.249999999999999
 30
0.0
 11
26.250000000000004
 21
7.071540326368147
 31
0.0
 67
0
  0
LINE
  5
66C
  8
0
 10
26.250000000000004
 20
7.071540326368147
 30
0.0
 11
26.420254889728714
 21
7.071540326368147
 31
0.0
 67
0
  0
LINE
  5
66D
  8
0
 10
26.420254889728714
 20
7.071540326368147
 30
0.0
 11
26.420254889728714
 21
7.499999999999999
 31
0.0
 67
0
  0
LINE
  5
66E
  8
0
 10
26.420254889728714
 20
7.499999999999999
 30
0.0
 11
26.250000000000004
 21
7.499999999999999
 31
0.0
 67
0
  0
LINE
  5
66F
  8
0
 10
23.579745110271254
 20
7.499999999999999
 30
0.0
 11
23.750000000000007
 21
7.499999999999999
 31
0.0
 67
0
  0
LINE
  5
670
  8
0
 10
23.579745110271254
 20
7.071540326368147
 30
0.0
 11
23.579745110271254
 21
7.499999999999999
 31
0.0
 67
0
  0
LINE
  5
671
  8
0
 10
23.750000000000007
 20
7.071540326368147
 30
0.0
 11
23.579745110271254
 21
7.071540326368147
 31
0.0
 67
0
  0
LINE
  5
672
  8
0
 10
23.750000000000007
 20
7.249999999999999
 30
0.0
 11
23.750000000000007
 21
7.071540326368147
 31
0.0
 67
0
  0
LINE
  5
673
  8
0
 10
26.250000000000004
 20
7.249999999999999
 30
0.0
 11
23.750000000000007
 21
7.249999999999999
 31
0.0
 67
0
  0
LINE
  5
674
  8
0
 10
23.750000000000007
 20
7.499999999999999
 30
0.0
 11
26.250000000000004
 21
7.499999999999999
 31
0.0
 67
0
  0
LINE
  5
675
  8
0
 10
22.750000000000007
 20
7.249999999999999
 30
0.0
 11
22.750000000000007
 21
7.071540326368147
 31
0.0
 67
0
  0
LINE
  5
676
  8
0
 10
22.750000000000007
 20
7.071540326368147
 30
0.0
 11
22.920254889728717
 21
7.071540326368147
 31
0.0
 67
0
  0
LINE
  5
677
  8
0
 10
22.920254889728717
 20
7.071540326368147
 30
0.0
 11
22.920254889728717
 21
7.499999999999999
 31
0.0
 67
0
  0
LINE
  5
678
  8
0
 10
22.920254889728717
 20
7.499999999999999
 30
0.0
 11
22.750000000000007
 21
7.499999999999999
 31
0.0
 67
0
  0
LINE
  5
679
  8
0
 10
20.079745110271254
 20
7.499999999999999
 30
0.0
 11
20.250000000000007
 21
7.499999999999999
 31
0.0
 67
0
  0
LINE
  5
67A
  8
0
 10
20.079745110271254
 20
7.071540326368147
 30
0.0
 11
20.079745110271254
 21
7.499999999999999
 31
0.0
 67
0
  0
LINE
  5
67B
  8
0
 10
20.250000000000007
 20
7.071540326368147
 30
0.0
 11
20.079745110271254
 21
7.071540326368147
 31
0.0
 67
0
  0
LINE
  5
67C
  8
0
 10
20.250000000000007
 20
7.249999999999999
 30
0.0
 11
20.250000000000007
 21
7.071540326368147
 31
0.0
 67
0
  0
LINE
  5
67D
  8
0
 10
22.750000000000007
 20
7.249999999999999
 30
0.0
 11
20.250000000000007
 21
7.249999999999999
 31
0.0
 67
0
  0
LINE
  5
67E
  8
0
 10
20.250000000000007
 20
7.499999999999999
 30
0.0
 11
22.750000000000007
 21
7.499999999999999
 31
0.0
 67
0
  0
LINE
  5
67F
  8
0
 10
19.250000000000007
 20
7.249999999999999
 30
0.0
 11
19.250000000000007
 21
7.071540326368147
 31
0.0
 67
0
  0
LINE
  5
680
  8
0
 10
19.250000000000007
 20
7.071540326368147
 30
0.0
 11
19.420254889728717
 21
7.071540326368147
 31
0.0
 67
0
  0
LINE
  5
681
  8
0
 10
19.420254889728717
 20
7.071540326368147
 30
0.0
 11
19.420254889728717
 21
7.499999999999999
 31
0.0
 67
0
  0
LINE
  5
682
  8
0
 10
19.420254889728717
 20
7.499999999999999
 30
0.0
 11
19.250000000000007
 21
7.499999999999999
 31
0.0
 67
0
  0
LINE
  5
683
  8
0
 10
16.57974511027125
 20
7.499999999999999
 30
0.0
 11
16.750000000000007
 21
7.499999999999999
 31
0.0
 67
0
  0
LINE
  5
684
  8
0
 10
16.57974511027125
 20
7.071540326368147
 30
0.0
 11
16.57974511027125
 21
7.499999999999999
 31
0.0
 67
0
  0
LINE
  5
685
  8
0
 10
16.750000000000007
 20
7.071540326368147
 30
0.0
 11
16.57974511027125
 21
7.071540326368147
 31
0.0
 67
0
  0
LINE
  5
686
  8
0
 10
16.750000000000007
 20
7.249999999999999
 30
0.0
 11
16.750000000000007
 21
7.071540326368147
 31
0.0
 67
0
  0
LINE
  5
687
  8
0
 10
19.250000000000007
 20
7.249999999999999
 30
0.0
 11
16.750000000000007
 21
7.249999999999999
 31
0.0
 67
0
  0
LINE
  5
688
  8
0
 10
16.750000000000007
 20
7.499999999999999
 30
0.0
 11
19.250000000000007
 21
7.499999999999999
 31
0.0
 67
0
  0
LINE
  5
689
  8
0
 10
15.750000000000005
 20
7.249999999999999
 30
0.0
 11
15.750000000000005
 21
7.071540326368147
 31
0.0
 67
0
  0
LINE
  5
68A
  8
0
 10
15.750000000000005
 20
7.071540326368147
 30
0.0
 11
15.920254889728715
 21
7.071540326368147
 31
0.0
 67
0
  0
LINE
  5
68B
  8
0
 10
15.920254889728715
 20
7.071540326368147
 30
0.0
 11
15.920254889728715
 21
7.499999999999999
 31
0.0
 67
0
  0
LINE
  5
68C
  8
0
 10
15.920254889728715
 20
7.499999999999999
 30
0.0
 11
15.750000000000005
 21
7.499999999999999
 31
0.0
 67
0
  0
LINE
  5
68D
  8
0
 10
13.079745110271235
 20
7.499999999999999
 30
0.0
 11
13.250000000000014
 21
7.499999999999999
 31
0.0
 67
0
  0
LINE
  5
68E
  8
0
 10
13.079745110271235
 20
7.071540326368147
 30
0.0
 11
13.079745110271235
 21
7.499999999999999
 31
0.0
 67
0
  0
LINE
  5
68F
  8
0
 10
13.250000000000014
 20
7.071540326368147
 30
0.0
 11
13.079745110271235
 21
7.071540326368147
 31
0.0
 67
0
  0
LINE
  5
690
  8
0
 10
13.250000000000014
 20
7.249999999999999
 30
0.0
 11
13.250000000000014
 21
7.071540326368147
 31
0.0
 67
0
  0
LINE
  5
691
  8
0
 10
15.750000000000005
 20
7.249999999999999
 30
0.0
 11
13.250000000000014
 21
7.249999999999999
 31
0.0
 67
0
  0
LINE
  5
692
  8
0
 10
13.250000000000014
 20
7.499999999999999
 30
0.0
 11
15.750000000000005
 21
7.499999999999999
 31
0.0
 67
0
  0
LINE
  5
693
  8
0
 10
16.517285246867424
 20
0.5748697190872463
 30
0.0
 11
16.517285246867424
 21
1.3248697190887224
 31
0.0
 67
0
  0
LINE
  5
694
  8
0
 10
18.43228524687715
 20
1.3248697189991103
 30
0.0
 11
18.43228524687715
 21
0.8248697190842902
 31
0.0
 67
0
  0
LINE
  5
695
  8
0
 10
18.43228524687715
 20
0.8248697190842902
 30
0.0
 11
18.932285246869974
 21
0.8248697190842902
 31
0.0
 67
0
  0
LINE
  5
696
  8
0
 10
18.932285246869974
 20
0.8248697190842902
 30
0.0
 11
18.932285246869974
 21
0.5748697190872463
 31
0.0
 67
0
  0
LINE
  5
697
  8
0
 10
16.517285246867424
 20
1.3248697190887224
 30
0.0
 11
17.013083970943022
 21
1.3248697190484504
 31
0.0
 67
0
  0
LINE
  5
698
  8
0
 10
17.31308397094302
 20
1.3248697190362844
 30
0.0
 11
17.31308397094302
 21
1.4748697190362774
 31
0.0
 67
0
  0
LINE
  5
699
  8
0
 10
17.013083970943022
 20
1.3248697190362844
 30
0.0
 11
17.013083970943022
 21
1.4748697190362774
 31
0.0
 67
0
  0
LINE
  5
69A
  8
0
 10
17.31308397094302
 20
1.3248697190240903
 30
0.0
 11
18.43228524687715
 21
1.3248697189991103
 31
0.0
 67
0
  0
LINE
  5
69B
  8
0
 10
18.73228524686998
 20
0.10786971907108982
 30
0.0
 11
18.73228524686998
 21
0.05786971907404852
 31
0.0
 67
0
  0
LINE
  5
69C
  8
0
 10
18.73228524686998
 20
-0.9821302809430534
 30
0.0
 11
17.482285246869345
 21
-0.9821302809430534
 31
0.0
 67
0
  0
LINE
  5
69D
  8
0
 10
17.482285246869345
 20
-0.9821302809430534
 30
0.0
 11
17.482285246869356
 21
-0.29213028092299
 31
0.0
 67
0
  0
LINE
  5
69E
  8
0
 10
18.73228524686998
 20
0.10786971907108982
 30
0.0
 11
16.717285246867423
 21
0.10786971907108982
 31
0.0
 67
0
  0
LINE
  5
69F
  8
0
 10
16.717285246867437
 20
-0.2921302809230042
 30
0.0
 11
16.717285246867437
 21
-0.24213028092594868
 31
0.0
 67
0
  0
LINE
  5
6A0
  8
0
 10
16.717285246871274
 20
0.2248697190902078
 30
0.0
 11
18.73228524686997
 21
0.2248697190902078
 31
0.0
 67
0
  0
LINE
  5
6A1
  8
0
 10
18.73228524686997
 20
0.6248697190843018
 30
0.0
 11
18.73228524686998
 21
0.5748697190872463
 31
0.0
 67
0
  0
LINE
  5
6A2
  8
0
 10
16.71728524686998
 20
0.6248697190843018
 30
0.0
 11
18.73228524686997
 21
0.6248697190843018
 31
0.0
 67
0
  0
POLYLINE
  5
6A3
  8
0
 66
1
 70
8
 10
0.0
 20
0.0
 30
0.0
 67
0
  0
VERTEX
  5
6A5
  8
0
 10
18.932285246869974
 20
0.2748697190872491
 30
0.0
 40
0.0
 41
0.0
 42
0.0
 70
32
 67
0
  0
VERTEX
  5
6A6
  8
0
 10
18.932285246869974
 20
0.05786971907404852
 30
0.0
 40
0.0
 41
0.0
 42
0.0
 70
32
 67
0
  0
SEQEND
  5
6A4
 67
0
  0
LINE
  5
6A7
  8
0
 10
18.73228524686998
 20
0.5748697190872463
 30
0.0
 11
18.932285246869974
 21
0.5748697190872463
 31
0.0
 67
0
  0
LINE
  5
6A8
  8
0
 10
18.73228524686998
 20
0.2748697190872491
 30
0.0
 11
18.932285246869974
 21
0.2748697190872491
 31
0.0
 67
0
  0
LINE
  5
6A9
  8
0
 10
16.71728524686998
 20
0.6248697190843018
 30
0.0
 11
16.717285246869995
 21
0.5748697190872463
 31
0.0
 67
0
  0
LINE
  5
6AA
  8
0
 10
16.71728524686998
 20
0.2748697190872491
 30
0.0
 11
16.517285246869978
 21
0.2748697190872491
 31
0.0
 67
0
  0
LINE
  5
6AB
  8
0
 10
16.717285246869995
 20
0.5748697190872463
 30
0.0
 11
16.517285246869978
 21
0.5748697190872463
 31
0.0
 67
0
  0
LINE
  5
6AC
  8
0
 10
16.717285246867437
 20
-0.2921302809230042
 30
0.0
 11
17.482285246869356
 21
-0.29213028092299
 31
0.0
 67
0
  0
LINE
  5
6AD
  8
0
 10
16.717285246868062
 20
-0.24213028092594868
 30
0.0
 11
16.517285246868074
 21
-0.24213028092594868
 31
0.0
 67
0
  0
LINE
  5
6AE
  8
0
 10
16.717285246868062
 20
0.05786971907404852
 30
0.0
 11
16.51728524686806
 21
0.05786971907404852
 31
0.0
 67
0
  0
LINE
  5
6AF
  8
0
 10
18.732285246868052
 20
-0.24213028092594868
 30
0.0
 11
18.932285246868076
 21
-0.24213028092594868
 31
0.0
 67
0
  0
LINE
  5
6B0
  8
0
 10
18.732285246868052
 20
0.05786971907404852
 30
0.0
 11
18.932285246868076
 21
0.05786971907404852
 31
0.0
 67
0
  0
LINE
  5
6B1
  8
0
 10
18.73228524686998
 20
0.2748697190872491
 30
0.0
 11
18.73228524686997
 21
0.2248697190902078
 31
0.0
 67
0
  0
LINE
  5
6B2
  8
0
 10
16.71728524687102
 20
0.2748697190872491
 30
0.0
 11
16.717285246871274
 21
0.2248697190902078
 31
0.0
 67
0
  0
LINE
  5
6B3
  8
0
 10
16.71728524686998
 20
0.2748697190872491
 30
0.0
 11
16.71728524686998
 21
0.2248697190902078
 31
0.0
 67
0
  0
POLYLINE
  5
6B4
  8
0
 66
1
 70
8
 10
0.0
 20
0.0
 30
0.0
 67
0
  0
VERTEX
  5
6B6
  8
0
 10
18.932285246869974
 20
-0.24213028092594868
 30
0.0
 40
0.0
 41
0.0
 42
0.0
 70
32
 67
0
  0
VERTEX
  5
6B7
  8
0
 10
18.932285246869974
 20
-1.1821302809430547
 30
0.0
 40
0.0
 41
0.0
 42
0.0
 70
32
 67
0
  0
VERTEX
  5
6B8
  8
0
 10
17.0172852468556
 20
-1.1821302809430547
 30
0.0
 40
0.0
 41
0.0
 42
0.0
 70
32
 67
0
  0
VERTEX
  5
6B9
  8
0
 10
17.0172852468556
 20
-0.4921302809229931
 30
0.0
 40
0.0
 41
0.0
 42
0.0
 70
32
 67
0
  0
VERTEX
  5
6BA
  8
0
 10
16.517285246867424
 20
-0.4921302809229931
 30
0.0
 40
0.0
 41
0.0
 42
0.0
 70
32
 67
0
  0
VERTEX
  5
6BB
  8
0
 10
16.517285246867424
 20
-0.24213028092594868
 30
0.0
 40
0.0
 41
0.0
 42
0.0
 70
32
 67
0
  0
SEQEND
  5
6B5
 67
0
  0
LINE
  5
6BC
  8
0
 10
18.73228524686997
 20
-0.24213028092594868
 30
0.0
 11
18.73228524686998
 21
-0.9821302809430534
 31
0.0
 67
0
  0
LINE
  5
6BD
  8
0
 10
16.717285246867423
 20
0.05786971907404852
 30
0.0
 11
16.717285246867423
 21
0.10786971907108982
 31
0.0
 67
0
  0
POLYLINE
  5
6BE
  8
0
 66
1
 70
8
 10
0.0
 20
0.0
 30
0.0
 67
0
  0
VERTEX
  5
6C0
  8
0
 10
16.517285246867424
 20
0.05786971907404852
 30
0.0
 40
0.0
 41
0.0
 42
0.0
 70
32
 67
0
  0
VERTEX
  5
6C1
  8
0
 10
16.517285246867424
 20
0.2748697190872491
 30
0.0
 40
0.0
 41
0.0
 42
0.0
 70
32
 67
0
  0
SEQEND
  5
6BF
 67
0
  0
LINE
  5
6C2
  8
0
 10
20.070048031945095
 20
0.6466112403973057
 30
0.0
 11
20.070048031945095
 21
1.3966112403987834
 31
0.0
 67
0
  0
LINE
  5
6C3
  8
0
 10
21.985048031954825
 20
1.3966112403091693
 30
0.0
 11
21.985048031954825
 21
0.8966112403943496
 31
0.0
 67
0
  0
LINE
  5
6C4
  8
0
 10
21.985048031954825
 20
0.8966112403943496
 30
0.0
 11
22.485048031947645
 21
0.8966112403943496
 31
0.0
 67
0
  0
LINE
  5
6C5
  8
0
 10
22.485048031947645
 20
0.8966112403943496
 30
0.0
 11
22.485048031947645
 21
0.6466112403973057
 31
0.0
 67
0
  0
LINE
  5
6C6
  8
0
 10
20.070048031945095
 20
1.3966112403987834
 30
0.0
 11
20.565846756020697
 21
1.3966112403585094
 31
0.0
 67
0
  0
LINE
  5
6C7
  8
0
 10
20.865846756020694
 20
1.3966112403463453
 30
0.0
 11
20.865846756020694
 21
1.5466112403463343
 31
0.0
 67
0
  0
LINE
  5
6C8
  8
0
 10
20.565846756020697
 20
1.3966112403463453
 30
0.0
 11
20.565846756020697
 21
1.5466112403463343
 31
0.0
 67
0
  0
LINE
  5
6C9
  8
0
 10
20.865846756020694
 20
1.3966112403341524
 30
0.0
 11
21.985048031954825
 21
1.3966112403091693
 31
0.0
 67
0
  0
LINE
  5
6CA
  8
0
 10
22.285048031947653
 20
0.17961124038114923
 30
0.0
 11
22.285048031947653
 21
0.12961124038410793
 31
0.0
 67
0
  0
LINE
  5
6CB
  8
0
 10
22.285048031947653
 20
-0.910388759632994
 30
0.0
 11
21.035048031947017
 21
-0.910388759632994
 31
0.0
 67
0
  0
LINE
  5
6CC
  8
0
 10
21.035048031947017
 20
-0.910388759632994
 30
0.0
 11
21.035048031947035
 21
-0.22038875961293058
 31
0.0
 67
0
  0
LINE
  5
6CD
  8
0
 10
22.285048031947653
 20
0.17961124038114923
 30
0.0
 11
20.270048031945098
 21
0.17961124038114923
 31
0.0
 67
0
  0
LINE
  5
6CE
  8
0
 10
20.270048031945116
 20
-0.2203887596129448
 30
0.0
 11
20.270048031945116
 21
-0.17038875961588928
 31
0.0
 67
0
  0
LINE
  5
6CF
  8
0
 10
20.270048031948953
 20
0.2966112404002672
 30
0.0
 11
22.285048031947653
 21
0.2966112404002672
 31
0.0
 67
0
  0
LINE
  5
6D0
  8
0
 10
22.285048031947653
 20
0.6966112403943612
 30
0.0
 11
22.285048031947653
 21
0.6466112403973057
 31
0.0
 67
0
  0
LINE
  5
6D1
  8
0
 10
20.270048031947653
 20
0.6966112403943612
 30
0.0
 11
22.285048031947653
 21
0.6966112403943612
 31
0.0
 67
0
  0
POLYLINE
  5
6D2
  8
0
 66
1
 70
8
 10
0.0
 20
0.0
 30
0.0
 67
0
  0
VERTEX
  5
6D4
  8
0
 10
22.485048031947645
 20
0.3466112403973085
 30
0.0
 40
0.0
 41
0.0
 42
0.0
 70
32
 67
0
  0
VERTEX
  5
6D5
  8
0
 10
22.485048031947645
 20
0.12961124038410793
 30
0.0
 40
0.0
 41
0.0
 42
0.0
 70
32
 67
0
  0
SEQEND
  5
6D3
 67
0
  0
LINE
  5
6D6
  8
0
 10
22.285048031947653
 20
0.6466112403973057
 30
0.0
 11
22.485048031947645
 21
0.6466112403973057
 31
0.0
 67
0
  0
LINE
  5
6D7
  8
0
 10
22.285048031947653
 20
0.3466112403973085
 30
0.0
 11
22.485048031947645
 21
0.3466112403973085
 31
0.0
 67
0
  0
LINE
  5
6D8
  8
0
 10
20.270048031947653
 20
0.6966112403943612
 30
0.0
 11
20.27004803194767
 21
0.6466112403973057
 31
0.0
 67
0
  0
LINE
  5
6D9
  8
0
 10
20.270048031947653
 20
0.3466112403973085
 30
0.0
 11
20.070048031947653
 21
0.3466112403973085
 31
0.0
 67
0
  0
LINE
  5
6DA
  8
0
 10
20.27004803194767
 20
0.6466112403973057
 30
0.0
 11
20.070048031947653
 21
0.6466112403973057
 31
0.0
 67
0
  0
LINE
  5
6DB
  8
0
 10
20.270048031945116
 20
-0.2203887596129448
 30
0.0
 11
21.035048031947035
 21
-0.22038875961293058
 31
0.0
 67
0
  0
LINE
  5
6DC
  8
0
 10
20.27004803194574
 20
-0.17038875961588928
 30
0.0
 11
20.07004803194575
 21
-0.17038875961588928
 31
0.0
 67
0
  0
LINE
  5
6DD
  8
0
 10
20.27004803194574
 20
0.12961124038410793
 30
0.0
 11
20.07004803194574
 21
0.12961124038410793
 31
0.0
 67
0
  0
LINE
  5
6DE
  8
0
 10
22.285048031945724
 20
-0.17038875961588928
 30
0.0
 11
22.485048031945748
 21
-0.17038875961588928
 31
0.0
 67
0
  0
LINE
  5
6DF
  8
0
 10
22.285048031945724
 20
0.12961124038410793
 30
0.0
 11
22.485048031945748
 21
0.12961124038410793
 31
0.0
 67
0
  0
LINE
  5
6E0
  8
0
 10
22.285048031947653
 20
0.3466112403973085
 30
0.0
 11
22.285048031947653
 21
0.2966112404002672
 31
0.0
 67
0
  0
LINE
  5
6E1
  8
0
 10
20.270048031948697
 20
0.3466112403973085
 30
0.0
 11
20.270048031948953
 21
0.2966112404002672
 31
0.0
 67
0
  0
LINE
  5
6E2
  8
0
 10
20.270048031947653
 20
0.3466112403973085
 30
0.0
 11
20.270048031947653
 21
0.2966112404002672
 31
0.0
 67
0
  0
POLYLINE
  5
6E3
  8
0
 66
1
 70
8
 10
0.0
 20
0.0
 30
0.0
 67
0
  0
VERTEX
  5
6E5
  8
0
 10
22.485048031947645
 20
-0.17038875961588928
 30
0.0
 40
0.0
 41
0.0
 42
0.0
 70
32
 67
0
  0
VERTEX
  5
6E6
  8
0
 10
22.485048031947645
 20
-1.1103887596329958
 30
0.0
 40
0.0
 41
0.0
 42
0.0
 70
32
 67
0
  0
VERTEX
  5
6E7
  8
0
 10
20.57004803193327
 20
-1.1103887596329958
 30
0.0
 40
0.0
 41
0.0
 42
0.0
 70
32
 67
0
  0
VERTEX
  5
6E8
  8
0
 10
20.57004803193327
 20
-0.4203887596129337
 30
0.0
 40
0.0
 41
0.0
 42
0.0
 70
32
 67
0
  0
VERTEX
  5
6E9
  8
0
 10
20.070048031945095
 20
-0.4203887596129337
 30
0.0
 40
0.0
 41
0.0
 42
0.0
 70
32
 67
0
  0
VERTEX
  5
6EA
  8
0
 10
20.070048031945095
 20
-0.17038875961588928
 30
0.0
 40
0.0
 41
0.0
 42
0.0
 70
32
 67
0
  0
SEQEND
  5
6E4
 67
0
  0
LINE
  5
6EB
  8
0
 10
22.285048031947653
 20
-0.17038875961588928
 30
0.0
 11
22.285048031947653
 21
-0.910388759632994
 31
0.0
 67
0
  0
LINE
  5
6EC
  8
0
 10
20.270048031945098
 20
0.12961124038410793
 30
0.0
 11
20.270048031945098
 21
0.17961124038114923
 31
0.0
 67
0
  0
POLYLINE
  5
6ED
  8
0
 66
1
 70
8
 10
0.0
 20
0.0
 30
0.0
 67
0
  0
VERTEX
  5
6EF
  8
0
 10
20.070048031945095
 20
0.12961124038410793
 30
0.0
 40
0.0
 41
0.0
 42
0.0
 70
32
 67
0
  0
VERTEX
  5
6F0
  8
0
 10
20.070048031945095
 20
0.3466112403973085
 30
0.0
 40
0.0
 41
0.0
 42
0.0
 70
32
 67
0
  0
SEQEND
  5
6EE
 67
0
  0
LINE
  5
6F1
  8
0
 10
26.74493634755636
 20
0.6466112403973057
 30
0.0
 11
26.74493634755636
 21
1.3966112403987834
 31
0.0
 67
0
  0
LINE
  5
6F2
  8
0
 10
28.659936347566095
 20
1.3966112403091693
 30
0.0
 11
28.659936347566095
 21
0.8966112403943496
 31
0.0
 67
0
  0
LINE
  5
6F3
  8
0
 10
28.659936347566095
 20
0.8966112403943496
 30
0.0
 11
29.15993634755891
 21
0.8966112403943496
 31
0.0
 67
0
  0
LINE
  5
6F4
  8
0
 10
29.15993634755891
 20
0.8966112403943496
 30
0.0
 11
29.15993634755891
 21
0.6466112403973057
 31
0.0
 67
0
  0
LINE
  5
6F5
  8
0
 10
26.74493634755636
 20
1.3966112403987834
 30
0.0
 11
27.240735071631963
 21
1.3966112403585094
 31
0.0
 67
0
  0
LINE
  5
6F6
  8
0
 10
27.540735071631964
 20
1.3966112403463453
 30
0.0
 11
27.540735071631964
 21
1.5466112403463343
 31
0.0
 67
0
  0
LINE
  5
6F7
  8
0
 10
27.240735071631963
 20
1.3966112403463453
 30
0.0
 11
27.240735071631963
 21
1.5466112403463343
 31
0.0
 67
0
  0
LINE
  5
6F8
  8
0
 10
27.540735071631964
 20
1.3966112403341524
 30
0.0
 11
28.659936347566095
 21
1.3966112403091693
 31
0.0
 67
0
  0
LINE
  5
6F9
  8
0
 10
28.959936347558923
 20
0.17961124038114923
 30
0.0
 11
28.959936347558923
 21
0.12961124038410793
 31
0.0
 67
0
  0
LINE
  5
6FA
  8
0
 10
28.959936347558923
 20
-0.910388759632994
 30
0.0
 11
27.709936347558283
 21
-0.910388759632994
 31
0.0
 67
0
  0
LINE
  5
6FB
  8
0
 10
27.709936347558283
 20
-0.910388759632994
 30
0.0
 11
27.709936347558305
 21
-0.22038875961293058
 31
0.0
 67
0
  0
LINE
  5
6FC
  8
0
 10
28.959936347558923
 20
0.17961124038114923
 30
0.0
 11
26.944936347556364
 21
0.17961124038114923
 31
0.0
 67
0
  0
LINE
  5
6FD
  8
0
 10
26.944936347556386
 20
-0.2203887596129448
 30
0.0
 11
26.944936347556386
 21
-0.17038875961588928
 31
0.0
 67
0
  0
LINE
  5
6FE
  8
0
 10
26.944936347560215
 20
0.2966112404002672
 30
0.0
 11
28.959936347558923
 21
0.2966112404002672
 31
0.0
 67
0
  0
LINE
  5
6FF
  8
0
 10
28.959936347558923
 20
0.6966112403943612
 30
0.0
 11
28.959936347558923
 21
0.6466112403973057
 31
0.0
 67
0
  0
LINE
  5
700
  8
0
 10
26.944936347558922
 20
0.6966112403943612
 30
0.0
 11
28.959936347558923
 21
0.6966112403943612
 31
0.0
 67
0
  0
POLYLINE
  5
701
  8
0
 66
1
 70
8
 10
0.0
 20
0.0
 30
0.0
 67
0
  0
VERTEX
  5
703
  8
0
 10
29.15993634755891
 20
0.3466112403973085
 30
0.0
 40
0.0
 41
0.0
 42
0.0
 70
32
 67
0
  0
VERTEX
  5
704
  8
0
 10
29.15993634755891
 20
0.12961124038410793
 30
0.0
 40
0.0
 41
0.0
 42
0.0
 70
32
 67
0
  0
SEQEND
  5
702
 67
0
  0
LINE
  5
705
  8
0
 10
28.959936347558923
 20
0.6466112403973057
 30
0.0
 11
29.15993634755891
 21
0.6466112403973057
 31
0.0
 67
0
  0
LINE
  5
706
  8
0
 10
28.959936347558923
 20
0.3466112403973085
 30
0.0
 11
29.15993634755891
 21
0.3466112403973085
 31
0.0
 67
0
  0
LINE
  5
707
  8
0
 10
26.944936347558922
 20
0.6966112403943612
 30
0.0
 11
26.944936347558944
 21
0.6466112403973057
 31
0.0
 67
0
  0
LINE
  5
708
  8
0
 10
26.944936347558922
 20
0.3466112403973085
 30
0.0
 11
26.744936347558923
 21
0.3466112403973085
 31
0.0
 67
0
  0
LINE
  5
709
  8
0
 10
26.944936347558944
 20
0.6466112403973057
 30
0.0
 11
26.744936347558923
 21
0.6466112403973057
 31
0.0
 67
0
  0
LINE
  5
70A
  8
0
 10
26.944936347556386
 20
-0.2203887596129448
 30
0.0
 11
27.709936347558305
 21
-0.22038875961293058
 31
0.0
 67
0
  0
LINE
  5
70B
  8
0
 10
26.944936347557004
 20
-0.17038875961588928
 30
0.0
 11
26.744936347557015
 21
-0.17038875961588928
 31
0.0
 67
0
  0
LINE
  5
70C
  8
0
 10
26.944936347557004
 20
0.12961124038410793
 30
0.0
 11
26.744936347557
 21
0.12961124038410793
 31
0.0
 67
0
  0
LINE
  5
70D
  8
0
 10
28.959936347556994
 20
-0.17038875961588928
 30
0.0
 11
29.159936347557014
 21
-0.17038875961588928
 31
0.0
 67
0
  0
LINE
  5
70E
  8
0
 10
28.959936347556994
 20
0.12961124038410793
 30
0.0
 11
29.159936347557014
 21
0.12961124038410793
 31
0.0
 67
0
  0
LINE
  5
70F
  8
0
 10
28.959936347558923
 20
0.3466112403973085
 30
0.0
 11
28.959936347558923
 21
0.2966112404002672
 31
0.0
 67
0
  0
LINE
  5
710
  8
0
 10
26.944936347559963
 20
0.3466112403973085
 30
0.0
 11
26.944936347560215
 21
0.2966112404002672
 31
0.0
 67
0
  0
LINE
  5
711
  8
0
 10
26.944936347558922
 20
0.3466112403973085
 30
0.0
 11
26.944936347558922
 21
0.2966112404002672
 31
0.0
 67
0
  0
POLYLINE
  5
712
  8
0
 66
1
 70
8
 10
0.0
 20
0.0
 30
0.0
 67
0
  0
VERTEX
  5
714
  8
0
 10
29.15993634755891
 20
-0.17038875961588928
 30
0.0
 40
0.0
 41
0.0
 42
0.0
 70
32
 67
0
  0
VERTEX
  5
715
  8
0
 10
29.15993634755891
 20
-1.1103887596329958
 30
0.0
 40
0.0
 41
0.0
 42
0.0
 70
32
 67
0
  0
VERTEX
  5
716
  8
0
 10
27.244936347544545
 20
-1.1103887596329958
 30
0.0
 40
0.0
 41
0.0
 42
0.0
 70
32
 67
0
  0
VERTEX
  5
717
  8
0
 10
27.244936347544545
 20
-0.4203887596129337
 30
0.0
 40
0.0
 41
0.0
 42
0.0
 70
32
 67
0
  0
VERTEX
  5
718
  8
0
 10
26.74493634755636
 20
-0.4203887596129337
 30
0.0
 40
0.0
 41
0.0
 42
0.0
 70
32
 67
0
  0
VERTEX
  5
719
  8
0
 10
26.74493634755636
 20
-0.17038875961588928
 30
0.0
 40
0.0
 41
0.0
 42
0.0
 70
32
 67
0
  0
SEQEND
  5
713
 67
0
  0
LINE
  5
71A
  8
0
 10
28.959936347558923
 20
-0.17038875961588928
 30
0.0
 11
28.959936347558923
 21
-0.910388759632994
 31
0.0
 67
0
  0
LINE
  5
71B
  8
0
 10
26.944936347556364
 20
0.12961124038410793
 30
0.0
 11
26.944936347556364
 21
0.17961124038114923
 31
0.0
 67
0
  0
POLYLINE
  5
71C
  8
0
 66
1
 70
8
 10
0.0
 20
0.0
 30
0.0
 67
0
  0
VERTEX
  5
71E
  8
0
 10
26.74493634755636
 20
0.12961124038410793
 30
0.0
 40
0.0
 41
0.0
 42
0.0
 70
32
 67
0
  0
VERTEX
  5
71F
  8
0
 10
26.74493634755636
 20
0.3466112403973085
 30
0.0
 40
0.0
 41
0.0
 42
0.0
 70
32
 67
0
  0
SEQEND
  5
71D
 67
0
  0
LINE
  5
720
  8
0
 10
30.656563873760152
 20
0.610740479742276
 30
0.0
 11
30.656563873760152
 21
1.3607404797437523
 31
0.0
 67
0
  0
LINE
  5
721
  8
0
 10
32.57156387376989
 20
1.3607404796541394
 30
0.0
 11
32.57156387376989
 21
0.8607404797393199
 31
0.0
 67
0
  0
LINE
  5
722
  8
0
 10
32.57156387376989
 20
0.8607404797393199
 30
0.0
 11
33.07156387376271
 21
0.8607404797393199
 31
0.0
 67
0
  0
LINE
  5
723
  8
0
 10
33.07156387376271
 20
0.8607404797393199
 30
0.0
 11
33.07156387376271
 21
0.610740479742276
 31
0.0
 67
0
  0
LINE
  5
724
  8
0
 10
30.656563873760152
 20
1.3607404797437523
 30
0.0
 11
31.15236259783576
 21
1.3607404797034803
 31
0.0
 67
0
  0
LINE
  5
725
  8
0
 10
31.452362597835766
 20
1.3607404796913154
 30
0.0
 11
31.452362597835766
 21
1.5107404796913064
 31
0.0
 67
0
  0
LINE
  5
726
  8
0
 10
31.15236259783576
 20
1.3607404796913154
 30
0.0
 11
31.15236259783576
 21
1.5107404796913064
 31
0.0
 67
0
  0
LINE
  5
727
  8
0
 10
31.452362597835766
 20
1.3607404796791214
 30
0.0
 11
32.57156387376989
 21
1.3607404796541394
 31
0.0
 67
0
  0
LINE
  5
728
  8
0
 10
32.87156387376273
 20
0.1437404797261195
 30
0.0
 11
32.87156387376273
 21
0.09374047972907822
 31
0.0
 67
0
  0
LINE
  5
729
  8
0
 10
32.87156387376273
 20
-0.9462595202880238
 30
0.0
 11
31.621563873762092
 21
-0.9462595202880238
 31
0.0
 67
0
  0
LINE
  5
72A
  8
0
 10
31.621563873762092
 20
-0.9462595202880238
 30
0.0
 11
31.621563873762106
 21
-0.2562595202679603
 31
0.0
 67
0
  0
LINE
  5
72B
  8
0
 10
32.87156387376273
 20
0.1437404797261195
 30
0.0
 11
30.856563873760173
 21
0.1437404797261195
 31
0.0
 67
0
  0
LINE
  5
72C
  8
0
 10
30.856563873760184
 20
-0.2562595202679745
 30
0.0
 11
30.856563873760184
 21
-0.20625952027091898
 31
0.0
 67
0
  0
LINE
  5
72D
  8
0
 10
30.856563873764014
 20
0.2607404797452375
 30
0.0
 11
32.87156387376273
 21
0.2607404797452375
 31
0.0
 67
0
  0
LINE
  5
72E
  8
0
 10
32.87156387376273
 20
0.6607404797393315
 30
0.0
 11
32.87156387376273
 21
0.610740479742276
 31
0.0
 67
0
  0
LINE
  5
72F
  8
0
 10
30.856563873762724
 20
0.6607404797393315
 30
0.0
 11
32.87156387376273
 21
0.6607404797393315
 31
0.0
 67
0
  0
POLYLINE
  5
730
  8
0
 66
1
 70
8
 10
0.0
 20
0.0
 30
0.0
 67
0
  0
VERTEX
  5
732
  8
0
 10
33.07156387376271
 20
0.3107404797422788
 30
0.0
 40
0.0
 41
0.0
 42
0.0
 70
32
 67
0
  0
VERTEX
  5
733
  8
0
 10
33.07156387376271
 20
0.09374047972907822
 30
0.0
 40
0.0
 41
0.0
 42
0.0
 70
32
 67
0
  0
SEQEND
  5
731
 67
0
  0
LINE
  5
734
  8
0
 10
32.87156387376273
 20
0.610740479742276
 30
0.0
 11
33.07156387376271
 21
0.610740479742276
 31
0.0
 67
0
  0
LINE
  5
735
  8
0
 10
32.87156387376273
 20
0.3107404797422788
 30
0.0
 11
33.07156387376271
 21
0.3107404797422788
 31
0.0
 67
0
  0
LINE
  5
736
  8
0
 10
30.856563873762724
 20
0.6607404797393315
 30
0.0
 11
30.856563873762745
 21
0.610740479742276
 31
0.0
 67
0
  0
LINE
  5
737
  8
0
 10
30.856563873762724
 20
0.3107404797422788
 30
0.0
 11
30.65656387376272
 21
0.3107404797422788
 31
0.0
 67
0
  0
LINE
  5
738
  8
0
 10
30.856563873762745
 20
0.610740479742276
 30
0.0
 11
30.65656387376272
 21
0.610740479742276
 31
0.0
 67
0
  0
LINE
  5
739
  8
0
 10
30.856563873760184
 20
-0.2562595202679745
 30
0.0
 11
31.621563873762106
 21
-0.2562595202679603
 31
0.0
 67
0
  0
LINE
  5
73A
  8
0
 10
30.856563873760805
 20
-0.20625952027091898
 30
0.0
 11
30.656563873760824
 21
-0.20625952027091898
 31
0.0
 67
0
  0
LINE
  5
73B
  8
0
 10
30.856563873760805
 20
0.09374047972907822
 30
0.0
 11
30.656563873760796
 21
0.09374047972907822
 31
0.0
 67
0
  0
LINE
  5
73C
  8
0
 10
32.87156387376079
 20
-0.20625952027091898
 30
0.0
 11
33.071563873760816
 21
-0.20625952027091898
 31
0.0
 67
0
  0
LINE
  5
73D
  8
0
 10
32.87156387376079
 20
0.09374047972907822
 30
0.0
 11
33.071563873760816
 21
0.09374047972907822
 31
0.0
 67
0
  0
LINE
  5
73E
  8
0
 10
32.87156387376273
 20
0.3107404797422788
 30
0.0
 11
32.87156387376273
 21
0.2607404797452375
 31
0.0
 67
0
  0
LINE
  5
73F
  8
0
 10
30.85656387376376
 20
0.3107404797422788
 30
0.0
 11
30.856563873764014
 21
0.2607404797452375
 31
0.0
 67
0
  0
LINE
  5
740
  8
0
 10
30.856563873762724
 20
0.3107404797422788
 30
0.0
 11
30.856563873762724
 21
0.2607404797452375
 31
0.0
 67
0
  0
POLYLINE
  5
741
  8
0
 66
1
 70
8
 10
0.0
 20
0.0
 30
0.0
 67
0
  0
VERTEX
  5
743
  8
0
 10
33.07156387376271
 20
-0.20625952027091898
 30
0.0
 40
0.0
 41
0.0
 42
0.0
 70
32
 67
0
  0
VERTEX
  5
744
  8
0
 10
33.07156387376271
 20
-1.1462595202880257
 30
0.0
 40
0.0
 41
0.0
 42
0.0
 70
32
 67
0
  0
VERTEX
  5
745
  8
0
 10
31.156563873748333
 20
-1.1462595202880257
 30
0.0
 40
0.0
 41
0.0
 42
0.0
 70
32
 67
0
  0
VERTEX
  5
746
  8
0
 10
31.156563873748333
 20
-0.4562595202679634
 30
0.0
 40
0.0
 41
0.0
 42
0.0
 70
32
 67
0
  0
VERTEX
  5
747
  8
0
 10
30.656563873760152
 20
-0.4562595202679634
 30
0.0
 40
0.0
 41
0.0
 42
0.0
 70
32
 67
0
  0
VERTEX
  5
748
  8
0
 10
30.656563873760152
 20
-0.20625952027091898
 30
0.0
 40
0.0
 41
0.0
 42
0.0
 70
32
 67
0
  0
SEQEND
  5
742
 67
0
  0
LINE
  5
749
  8
0
 10
32.87156387376273
 20
-0.20625952027091898
 30
0.0
 11
32.87156387376273
 21
-0.9462595202880238
 31
0.0
 67
0
  0
LINE
  5
74A
  8
0
 10
30.856563873760173
 20
0.09374047972907822
 30
0.0
 11
30.856563873760173
 21
0.1437404797261195
 31
0.0
 67
0
  0
POLYLINE
  5
74B
  8
0
 66
1
 70
8
 10
0.0
 20
0.0
 30
0.0
 67
0
  0
VERTEX
  5
74D
  8
0
 10
30.656563873760152
 20
0.09374047972907822
 30
0.0
 40
0.0
 41
0.0
 42
0.0
 70
32
 67
0
  0
VERTEX
  5
74E
  8
0
 10
30.656563873760152
 20
0.3107404797422788
 30
0.0
 40
0.0
 41
0.0
 42
0.0
 70
32
 67
0
  0
SEQEND
  5
74C
 67
0
  0
CIRCLE
  5
74F
  8
0
 10
13.5
 20
-11.5
 30
0.0
 40
0.4
 67
0
  0
CIRCLE
  5
750
  8
0
 10
14.86
 20
-11.5
 30
0.0
 40
0.4
 67
0
  0
CIRCLE
  5
751
  8
0
 10
16.22
 20
-11.5
 30
0.0
 40
0.4
 67
0
  0
CIRCLE
  5
752
  8
0
 10
17.58
 20
-11.5
 30
0.0
 40
0.4
 67
0
  0
CIRCLE
  5
753
  8
0
 10
18.94
 20
-11.5
 30
0.0
 40
0.4
 67
0
  0
CIRCLE
  5
754
  8
0
 10
20.3
 20
-11.5
 30
0.0
 40
0.4
 67
0
  0
CIRCLE
  5
755
  8
0
 10
21.66
 20
-11.5
 30
0.0
 40
0.4
 67
0
  0
CIRCLE
  5
756
  8
0
 10
23.020000000000003
 20
-11.5
 30
0.0
 40
0.4
 67
0
  0
CIRCLE
  5
757
  8
0
 10
24.380000000000003
 20
-11.5
 30
0.0
 40
0.4
 67
0
  0
ENDSEC
  0
EOF
