  0
SECTION
  2
HEADER
  9
$ACADVER
  1
AC1009
  9
$DWGCODEPAGE
  3
ANSI_1252
  9
$LASTSAVEDBY
  1
unknown
  9
$INSBASE
 10
0.0
 20
0.0
 30
0.0
  9
$EXTMIN
 10
1e+20
 20
1e+20
 30
1e+20
  9
$EXTMAX
 10
-1e+20
 20
-1e+20
 30
-1e+20
  9
$LIMMIN
 10
0.0
 20
0.0
  9
$LIMMAX
 10
12.0
 20
9.0
  9
$ORTHOMODE
 70
0
  9
$REGENMODE
 70
1
  9
$FILLMODE
 70
1
  9
$QTEXTMODE
 70
0
  9
$MIRRTEXT
 70
0
  9
$DRAGMODE
 70
2
  9
$LTSCALE
 40
1.0
  9
$OSMODE
 70
37
  9
$ATTMODE
 70
1
  9
$TEXTSIZE
 40
0.2
  9
$TRACEWID
 40
0.05
  9
$TEXTSTYLE
  7
NOTES
  9
$CLAYER
  8
0
  9
$CELTYPE
  6
BYLAYER
  9
$CECOLOR
 62
256
  9
$DIMSCALE
 40
1.0
  9
$DIMASZ
 40
3.0
  9
$DIMEXO
 40
1.5
  9
$DIMDLI
 40
6.0
  9
$DIMRND
 40
0.0
  9
$DIMDLE
 40
0.0
  9
$DIMEXE
 40
3.0
  9
$DIMTP
 40
0.0
  9
$DIMTM
 40
0.0
  9
$DIMTXT
 40
3.0
  9
$DIMCEN
 40
3.0
  9
$DIMTSZ
 40
0.0
  9
$DIMTOL
 70
0
  9
$DIMLIM
 70
0
  9
$DIMTIH
 70
0
  9
$DIMTOH
 70
0
  9
$DIMSE1
 70
0
  9
$DIMSE2
 70
0
  9
$DIMTAD
 70
1
  9
$DIMZIN
 70
3
  9
$DIMBLK
  1

  9
$DIMASO
 70
1
  9
$DIMSHO
 70
1
  9
$DIMPOST
  1

  9
$DIMAPOST
  1

  9
$DIMALT
 70
0
  9
$DIMALTD
 70
2
  9
$DIMALTF
 40
25.4
  9
$DIMLFAC
 40
1.0
  9
$DIMTOFL
 70
0
  9
$DIMTVP
 40
0.0
  9
$DIMTIX
 70
0
  9
$DIMSOXD
 70
0
  9
$DIMSAH
 70
0
  9
$DIMBLK1
  1

  9
$DIMBLK2
  1

  9
$DIMSTYLE
  2
CIVIL-METRIC
  9
$DIMCLRD
 70
0
  9
$DIMCLRE
 70
0
  9
$DIMCLRT
 70
0
  9
$DIMTFAC
 40
1.0
  9
$DIMGAP
 40
2.0
  9
$LUNITS
 70
2
  9
$LUPREC
 70
4
  9
$SKETCHINC
 40
0.1
  9
$FILLETRAD
 40
0.0
  9
$AUNITS
 70
4
  9
$AUPREC
 70
5
  9
$MENU
  1
.
  9
$ELEVATION
 40
0.0
  9
$PELEVATION
 40
0.0
  9
$THICKNESS
 40
0.0
  9
$LIMCHECK
 70
0
  9
$BLIPMODE
 70
0
  9
$CHAMFERA
 40
0.0
  9
$CHAMFERB
 40
0.0
  9
$SKPOLY
 70
0
  9
$TDCREATE
 40
2457275.4643171295
  9
$TDUPDATE
 40
2457275.4643171295
  9
$TDINDWG
 40
0.0
  9
$TDUSRTIMER
 40
0.0
  9
$USRTIMER
 70
1
  9
$ANGBASE
 50
0.0
  9
$ANGDIR
 70
0
  9
$PDMODE
 70
0
  9
$PDSIZE
 40
0.0
  9
$PLINEWID
 40
0.0
  9
$COORDS
 70
1
  9
$SPLFRAME
 70
0
  9
$SPLINETYPE
 70
6
  9
$SPLINESEGS
 70
8
  9
$ATTDIA
 70
0
  9
$ATTREQ
 70
1
  9
$HANDLING
 70
1
  9
$HANDSEED
  5
4C9
  9
$SURFTAB1
 70
6
  9
$SURFTAB2
 70
6
  9
$SURFTYPE
 70
6
  9
$SURFU
 70
6
  9
$SURFV
 70
6
  9
$UCSNAME
  2

  9
$UCSORG
 10
0.0
 20
0.0
 30
0.0
  9
$UCSXDIR
 10
1.0
 20
0.0
 30
0.0
  9
$UCSYDIR
 10
0.0
 20
1.0
 30
0.0
  9
$PUCSNAME
  2

  9
$PUCSORG
 10
0.0
 20
0.0
 30
0.0
  9
$PUCSXDIR
 10
1.0
 20
0.0
 30
0.0
  9
$PUCSYDIR
 10
0.0
 20
1.0
 30
0.0
  9
$USERI1
 70
0
  9
$USERI2
 70
0
  9
$USERI3
 70
0
  9
$USERI4
 70
0
  9
$USERI5
 70
0
  9
$USERR1
 40
0.0
  9
$USERR2
 40
0.0
  9
$USERR3
 40
0.0
  9
$USERR4
 40
0.0
  9
$USERR5
 40
0.0
  9
$WORLDVIEW
 70
1
  9
$SHADEDGE
 70
3
  9
$SHADEDIF
 70
70
  9
$TILEMODE
 70
1
  9
$MAXACTVP
 70
64
  9
$PLIMCHECK
 70
0
  9
$PEXTMIN
 10
0.62886676639706
 20
0.7999999523162842
 30
0.0
  9
$PEXTMAX
 10
9.028866384927335
 20
7.199999570846558
 30
0.0
  9
$PLIMMIN
 10
-0.7005418191744587
 20
-0.2281003861915408
  9
$PLIMMAX
 10
10.29945794052965
 20
8.27189937351257
  9
$UNITMODE
 70
0
  9
$VISRETAIN
 70
1
  9
$PLINEGEN
 70
0
  9
$PSLTSCALE
 70
1
  0
ENDSEC
  0
SECTION
  2
TABLES
  0
TABLE
  2
VPORT
  5
430
 70
1
  0
VPORT
  5
40E
  2
*ACTIVE
 70
0
 10
0.0
 20
0.0
 11
1.0
 21
1.0
 12
68.7397286580374
 22
49.8327539171525
 13
0.0
 23
0.0
 14
0.5
 24
0.5
 15
0.5
 25
0.5
 16
0.0
 26
0.0
 36
1.0
 17
0.0
 27
0.0
 37
0.0
 40
69.03946035988814
 41
1.341176470588235
 42
50.0
 43
0.0
 44
0.0
 50
0.0
 51
0.0
 71
0
 72
1000
 73
1
 74
3
 75
0
 76
0
 77
0
 78
0
  0
ENDTAB
  0
TABLE
  2
LTYPE
  5
431
 70
5
  0
LTYPE
  5
40F
  2
CONTINUOUS
 70
0
  3
Solid line
 72
65
 73
0
 40
0.0
  0
LTYPE
  5
410
  2
CENTER
 70
0
  3
Center ____ _ ____ _ ____ _ ____ _ ____ _ ____
 72
65
 73
4
 40
2.0
 49
1.25
 49
-0.25
 49
0.25
 49
-0.25
  0
LTYPE
  5
411
  2
DASHED
 70
0
  3
Dashed __ __ __ __ __ __ __ __ __ __ __ __ __ _
 72
65
 73
2
 40
0.75
 49
0.5
 49
-0.25
  0
LTYPE
  5
412
  2
PHANTOM
 70
0
  3
Phantom ______  __  __  ______  __  __  ______
 72
65
 73
6
 40
2.5
 49
1.25
 49
-0.25
 49
0.25
 49
-0.25
 49
0.25
 49
-0.25
  0
LTYPE
  5
413
  2
HIDDEN
 70
0
  3
Hidden __ __ __ __ __ __ __ __ __ __ __ __ __ __
 72
65
 73
2
 40
9.524999999999999
 49
6.349999999999999
 49
-3.174999999999999
  0
ENDTAB
  0
TABLE
  2
LAYER
  5
432
 70
1
  0
LAYER
  5
43B
  2
REELASE
 70
0
 62
7
  6
CONTINUOUS
  0
ENDTAB
  0
TABLE
  2
STYLE
  5
433
 70
5
  0
STYLE
  5
417
  2
STANDARD
 70
0
 40
0.0
 41
1.0
 50
0.0
 71
0
 42
0.2
  3
txt
  4

  0
STYLE
  5
418
  2
ANNOTATIVE
 70
0
 40
0.0
 41
1.0
 50
0.0
 71
0
 42
0.2
  3
txt
  4

  0
STYLE
  5
419
  2
NOTES
 70
0
 40
3.0
 41
1.0
 50
0.0
 71
0
 42
0.2
  3
txt
  4

  0
STYLE
  5
41A
  2
TITLES
 70
0
 40
6.0
 41
1.0
 50
0.0
 71
0
 42
0.2
  3
txt
  4

  0
STYLE
  5
41B
  2

 70
1
 40
0.0
 41
1.0
 50
0.0
 71
0
 42
0.2
  3
ltypeshp.shx
  4

  0
ENDTAB
  0
TABLE
  2
VIEW
  5
434
 70
0
  0
ENDTAB
  0
TABLE
  2
UCS
  5
435
 70
0
  0
ENDTAB
  0
TABLE
  2
APPID
  5
436
 70
10
  0
APPID
  5
41C
  2
ACAD
 70
0
  0
APPID
  5
41D
  2
ACADANNOPO
 70
0
  0
APPID
  5
41E
  2
ACADANNOTATIVE
 70
0
  0
APPID
  5
41F
  2
ACAD_DSTYLE_DIMJAG
 70
0
  0
APPID
  5
420
  2
ACAD_DSTYLE_DIMTALN
 70
0
  0
APPID
  5
421
  2
ACAD_MLEADERVER
 70
0
  0
APPID
  5
422
  2
ACAECLAYERSTANDARD
 70
0
  0
APPID
  5
423
  2
ACAD_EXEMPT_FROM_CAD_STANDARDS
 70
0
  0
APPID
  5
424
  2
ACAD_DSTYLE_DIMBREAK
 70
0
  0
APPID
  5
425
  2
ACAD_PSEXT
 70
0
  0
ENDTAB
  0
TABLE
  2
DIMSTYLE
  5
437
 70
3
  0
DIMSTYLE
105
438
  2
STANDARD
 70
0
  3

  4

  5

  6

  7

 40
1.0
 41
3.0
 42
2.0
 43
9.0
 44
5.0
 45
0.0
 46
0.0
 47
0.0
 48
0.0
140
3.0
141
2.0
142
0.0
143
25.4
144
1.0
145
0.0
146
1.0
147
2.0
 71
0
 72
0
 73
1
 74
1
 75
0
 76
0
 77
0
 78
0
170
0
171
2
172
0
173
0
174
0
175
0
176
0
177
0
178
0
  0
DIMSTYLE
105
439
  2
ANNOTATIVE
 70
0
  3

  4

  5

  6

  7

 40
0.0
 41
3.0
 42
2.5
 43
10.0
 44
5.0
 45
0.0
 46
0.0
 47
0.0
 48
0.0
140
3.0
141
2.0
142
0.0
143
25.4
144
1.0
145
0.0
146
1.0
147
2.0
 71
0
 72
0
 73
1
 74
1
 75
0
 76
0
 77
0
 78
0
170
0
171
2
172
0
173
0
174
0
175
0
176
0
177
0
178
0
  0
DIMSTYLE
105
43A
  2
CIVIL-METRIC
 70
0
  3

  4

  5

  6

  7

 40
1.0
 41
3.0
 42
1.5
 43
6.0
 44
3.0
 45
0.0
 46
0.0
 47
0.0
 48
0.0
140
3.0
141
3.0
142
0.0
143
25.4
144
1.0
145
0.0
146
1.0
147
2.0
 71
0
 72
0
 73
0
 74
0
 75
0
 76
0
 77
1
 78
3
170
0
171
2
172
0
173
0
174
0
175
0
176
0
177
0
178
0
  0
ENDTAB
  0
ENDSEC
  0
SECTION
  2
BLOCKS
  0
BLOCK
  5
429
  8
0
  2
$MODEL_SPACE
 70
0
 10
0.0
 20
0.0
 30
0.0
  3
$MODEL_SPACE
  1

  0
ENDBLK
  5
21
  8
0
  0
BLOCK
  5
42A
 67
1
  8
0
  2
$PAPER_SPACE
 70
0
 10
0.0
 20
0.0
 30
0.0
  3
$PAPER_SPACE
  1

  0
ENDBLK
  5
5B
 67
1
  8
0
  0
ENDSEC
  0
SECTION
  2
ENTITIES
  0
LINE
  5
43C
  8
0
 10
-12.5
 20
-7.499999999999999
 30
0.0
 11
-12.25
 21
-7.499999999999993
 31
0.0
 67
0
  0
LINE
  5
43D
  8
0
 10
-11.75
 20
-7.071540326368141
 30
0.0
 11
-11.75
 21
-2.499999999999993
 31
0.0
 67
0
  0
LINE
  5
43E
  8
0
 10
-11.75
 20
-2.499999999999993
 30
0.0
 11
-9.25
 21
-2.499999999999993
 31
0.0
 67
0
  0
LINE
  5
43F
  8
0
 10
-9.25
 20
-2.499999999999993
 30
0.0
 11
-9.25
 21
-7.071540326368141
 31
0.0
 67
0
  0
LINE
  5
440
  8
0
 10
-9.25
 20
-7.071540326368141
 30
0.0
 11
-9.07974511027119
 21
-7.071540326368141
 31
0.0
 67
0
  0
LINE
  5
441
  8
0
 10
-9.07974511027119
 20
-7.071540326368141
 30
0.0
 11
-9.07974511027119
 21
-7.499999999999993
 31
0.0
 67
0
  0
LINE
  5
442
  8
0
 10
-9.07974511027119
 20
-7.499999999999993
 30
0.0
 11
-8.75
 21
-7.499999999999993
 31
0.0
 67
0
  0
LINE
  5
443
  8
0
 10
-11.920254889728682
 20
-7.499999999999993
 30
0.0
 11
-12.25
 21
-7.499999999999993
 31
0.0
 67
0
  0
LINE
  5
444
  8
0
 10
-11.920254889728682
 20
-7.499999999999993
 30
0.0
 11
-11.920254889728682
 21
-7.071540326368141
 31
0.0
 67
0
  0
LINE
  5
445
  8
0
 10
-11.920254889728682
 20
-7.071540326368141
 30
0.0
 11
-11.75
 21
-7.071540326368141
 31
0.0
 67
0
  0
LINE
  5
446
  8
0
 10
-8.25
 20
-7.071540326368141
 30
0.0
 11
-8.25
 21
-2.499999999999993
 31
0.0
 67
0
  0
LINE
  5
447
  8
0
 10
-8.25
 20
-2.499999999999993
 30
0.0
 11
-5.75
 21
-2.499999999999993
 31
0.0
 67
0
  0
LINE
  5
448
  8
0
 10
-5.75
 20
-2.499999999999993
 30
0.0
 11
-5.75
 21
-7.071540326368141
 31
0.0
 67
0
  0
LINE
  5
449
  8
0
 10
-5.75
 20
-7.071540326368141
 30
0.0
 11
-5.57974511027129
 21
-7.071540326368141
 31
0.0
 67
0
  0
LINE
  5
44A
  8
0
 10
-5.57974511027129
 20
-7.071540326368141
 30
0.0
 11
-5.57974511027129
 21
-7.499999999999993
 31
0.0
 67
0
  0
LINE
  5
44B
  8
0
 10
-5.57974511027129
 20
-7.499999999999993
 30
0.0
 11
-5.25
 21
-7.499999999999993
 31
0.0
 67
0
  0
LINE
  5
44C
  8
0
 10
-8.420254889728795
 20
-7.499999999999993
 30
0.0
 11
-8.75
 21
-7.499999999999993
 31
0.0
 67
0
  0
LINE
  5
44D
  8
0
 10
-8.420254889728795
 20
-7.499999999999993
 30
0.0
 11
-8.420254889728795
 21
-7.071540326368141
 31
0.0
 67
0
  0
LINE
  5
44E
  8
0
 10
-8.420254889728795
 20
-7.071540326368141
 30
0.0
 11
-8.25
 21
-7.071540326368141
 31
0.0
 67
0
  0
LINE
  5
44F
  8
0
 10
-4.75
 20
-7.071540326368141
 30
0.0
 11
-4.75
 21
-2.499999999999993
 31
0.0
 67
0
  0
LINE
  5
450
  8
0
 10
-4.75
 20
-2.499999999999993
 30
0.0
 11
-2.25
 21
-2.499999999999993
 31
0.0
 67
0
  0
LINE
  5
451
  8
0
 10
-2.25
 20
-2.499999999999993
 30
0.0
 11
-2.25
 21
-7.071540326368141
 31
0.0
 67
0
  0
LINE
  5
452
  8
0
 10
-2.25
 20
-7.071540326368141
 30
0.0
 11
-2.07974511027129
 21
-7.071540326368141
 31
0.0
 67
0
  0
LINE
  5
453
  8
0
 10
-2.07974511027129
 20
-7.071540326368141
 30
0.0
 11
-2.07974511027129
 21
-7.499999999999993
 31
0.0
 67
0
  0
LINE
  5
454
  8
0
 10
-2.07974511027129
 20
-7.499999999999993
 30
0.0
 11
-1.75
 21
-7.499999999999993
 31
0.0
 67
0
  0
LINE
  5
455
  8
0
 10
-4.920254889728795
 20
-7.499999999999993
 30
0.0
 11
-5.25
 21
-7.499999999999993
 31
0.0
 67
0
  0
LINE
  5
456
  8
0
 10
-4.920254889728795
 20
-7.499999999999993
 30
0.0
 11
-4.920254889728795
 21
-7.071540326368141
 31
0.0
 67
0
  0
LINE
  5
457
  8
0
 10
-4.920254889728795
 20
-7.071540326368141
 30
0.0
 11
-4.75
 21
-7.071540326368141
 31
0.0
 67
0
  0
LINE
  5
458
  8
0
 10
-1.25
 20
-7.071540326368141
 30
0.0
 11
-1.25
 21
-2.499999999999993
 31
0.0
 67
0
  0
LINE
  5
459
  8
0
 10
-1.25
 20
-2.499999999999993
 30
0.0
 11
1.25
 21
-2.499999999999993
 31
0.0
 67
0
  0
LINE
  5
45A
  8
0
 10
1.25
 20
-2.499999999999993
 30
0.0
 11
1.25
 21
-7.071540326368141
 31
0.0
 67
0
  0
LINE
  5
45B
  8
0
 10
1.25
 20
-7.071540326368141
 30
0.0
 11
1.4202548897287102
 21
-7.071540326368141
 31
0.0
 67
0
  0
LINE
  5
45C
  8
0
 10
1.4202548897287102
 20
-7.071540326368141
 30
0.0
 11
1.4202548897287102
 21
-7.499999999999993
 31
0.0
 67
0
  0
LINE
  5
45D
  8
0
 10
1.4202548897287102
 20
-7.499999999999993
 30
0.0
 11
1.75
 21
-7.499999999999993
 31
0.0
 67
0
  0
LINE
  5
45E
  8
0
 10
-1.4202548897287954
 20
-7.499999999999993
 30
0.0
 11
-1.75
 21
-7.499999999999993
 31
0.0
 67
0
  0
LINE
  5
45F
  8
0
 10
-1.4202548897287954
 20
-7.499999999999993
 30
0.0
 11
-1.4202548897287954
 21
-7.071540326368141
 31
0.0
 67
0
  0
LINE
  5
460
  8
0
 10
-1.4202548897287954
 20
-7.071540326368141
 30
0.0
 11
-1.25
 21
-7.071540326368141
 31
0.0
 67
0
  0
LINE
  5
461
  8
0
 10
2.25
 20
-7.071540326368141
 30
0.0
 11
2.25
 21
-2.499999999999981
 31
0.0
 67
0
  0
LINE
  5
462
  8
0
 10
2.25
 20
-2.499999999999981
 30
0.0
 11
4.75
 21
-2.499999999999981
 31
0.0
 67
0
  0
LINE
  5
463
  8
0
 10
4.75
 20
-2.499999999999981
 30
0.0
 11
4.75
 21
-7.071540326368141
 31
0.0
 67
0
  0
LINE
  5
464
  8
0
 10
4.75
 20
-7.071540326368141
 30
0.0
 11
4.92025488972871
 21
-7.071540326368141
 31
0.0
 67
0
  0
LINE
  5
465
  8
0
 10
4.92025488972871
 20
-7.071540326368141
 30
0.0
 11
4.92025488972871
 21
-7.499999999999993
 31
0.0
 67
0
  0
LINE
  5
466
  8
0
 10
4.92025488972871
 20
-7.499999999999993
 30
0.0
 11
5.25
 21
-7.499999999999993
 31
0.0
 67
0
  0
LINE
  5
467
  8
0
 10
2.0797451102712046
 20
-7.499999999999993
 30
0.0
 11
1.75
 21
-7.499999999999993
 31
0.0
 67
0
  0
LINE
  5
468
  8
0
 10
2.0797451102712046
 20
-7.499999999999978
 30
0.0
 11
2.0797451102712046
 21
-7.071540326368141
 31
0.0
 67
0
  0
LINE
  5
469
  8
0
 10
2.0797451102712046
 20
-7.071540326368141
 30
0.0
 11
2.25
 21
-7.071540326368141
 31
0.0
 67
0
  0
LINE
  5
46A
  8
0
 10
5.75
 20
-7.071540326368141
 30
0.0
 11
5.75
 21
-2.499999999999981
 31
0.0
 67
0
  0
LINE
  5
46B
  8
0
 10
5.75
 20
-2.499999999999981
 30
0.0
 11
8.25
 21
-2.499999999999981
 31
0.0
 67
0
  0
LINE
  5
46C
  8
0
 10
8.25
 20
-2.499999999999981
 30
0.0
 11
8.25
 21
-7.071540326368141
 31
0.0
 67
0
  0
LINE
  5
46D
  8
0
 10
8.25
 20
-7.071540326368141
 30
0.0
 11
8.42025488972871
 21
-7.071540326368141
 31
0.0
 67
0
  0
LINE
  5
46E
  8
0
 10
8.42025488972871
 20
-7.071540326368141
 30
0.0
 11
8.42025488972871
 21
-7.499999999999993
 31
0.0
 67
0
  0
LINE
  5
46F
  8
0
 10
8.42025488972871
 20
-7.499999999999993
 30
0.0
 11
8.75
 21
-7.499999999999993
 31
0.0
 67
0
  0
LINE
  5
470
  8
0
 10
5.579745110271205
 20
-7.499999999999993
 30
0.0
 11
5.25
 21
-7.499999999999993
 31
0.0
 67
0
  0
LINE
  5
471
  8
0
 10
5.579745110271205
 20
-7.499999999999978
 30
0.0
 11
5.579745110271205
 21
-7.071540326368141
 31
0.0
 67
0
  0
LINE
  5
472
  8
0
 10
5.579745110271205
 20
-7.071540326368141
 30
0.0
 11
5.75
 21
-7.071540326368141
 31
0.0
 67
0
  0
LINE
  5
473
  8
0
 10
9.25
 20
-7.071540326368129
 30
0.0
 11
9.25
 21
-2.499999999999981
 31
0.0
 67
0
  0
LINE
  5
474
  8
0
 10
9.25
 20
-2.499999999999981
 30
0.0
 11
11.75
 21
-2.499999999999981
 31
0.0
 67
0
  0
LINE
  5
475
  8
0
 10
11.75
 20
-2.499999999999981
 30
0.0
 11
11.7499999999999
 21
-7.071540326368129
 31
0.0
 67
0
  0
LINE
  5
476
  8
0
 10
11.7499999999999
 20
-7.071540326368129
 30
0.0
 11
11.92025488972871
 21
-7.071540326368129
 31
0.0
 67
0
  0
LINE
  5
477
  8
0
 10
11.92025488972871
 20
-7.071540326368129
 30
0.0
 11
11.92025488972871
 21
-7.499999999999993
 31
0.0
 67
0
  0
LINE
  5
478
  8
0
 10
11.92025488972871
 20
-7.499999999999993
 30
0.0
 11
12.5
 21
-7.499999999999993
 31
0.0
 67
0
  0
LINE
  5
479
  8
0
 10
9.079745110271205
 20
-7.499999999999993
 30
0.0
 11
8.75
 21
-7.499999999999993
 31
0.0
 67
0
  0
LINE
  5
47A
  8
0
 10
9.079745110271205
 20
-7.499999999999978
 30
0.0
 11
9.079745110271205
 21
-7.071540326368129
 31
0.0
 67
0
  0
LINE
  5
47B
  8
0
 10
9.079745110271205
 20
-7.071540326368129
 30
0.0
 11
9.25
 21
-7.071540326368129
 31
0.0
 67
0
  0
LINE
  5
47C
  8
0
 10
9.079745110271205
 20
7.071540326368149
 30
0.0
 11
9.25
 21
7.071540326368149
 31
0.0
 67
0
  0
LINE
  5
47D
  8
0
 10
9.079745110271205
 20
7.499999999999999
 30
0.0
 11
9.079745110271205
 21
7.071540326368149
 31
0.0
 67
0
  0
LINE
  5
47E
  8
0
 10
9.079745110271205
 20
7.499999999999999
 30
0.0
 11
8.75
 21
7.499999999999999
 31
0.0
 67
0
  0
LINE
  5
47F
  8
0
 10
11.92025488972871
 20
7.499999999999999
 30
0.0
 11
12.2499999999999
 21
7.499999999999999
 31
0.0
 67
0
  0
LINE
  5
480
  8
0
 10
11.92025488972871
 20
7.071540326368149
 30
0.0
 11
11.92025488972871
 21
7.499999999999999
 31
0.0
 67
0
  0
LINE
  5
481
  8
0
 10
11.7499999999999
 20
7.071540326368149
 30
0.0
 11
11.92025488972871
 21
7.071540326368149
 31
0.0
 67
0
  0
LINE
  5
482
  8
0
 10
11.75
 20
2.499999999999995
 30
0.0
 11
11.7499999999999
 21
7.071540326368149
 31
0.0
 67
0
  0
LINE
  5
483
  8
0
 10
9.25
 20
2.499999999999995
 30
0.0
 11
11.75
 21
2.499999999999995
 31
0.0
 67
0
  0
LINE
  5
484
  8
0
 10
9.25
 20
7.071540326368149
 30
0.0
 11
9.25
 21
2.499999999999995
 31
0.0
 67
0
  0
LINE
  5
485
  8
0
 10
5.579745110271205
 20
7.071540326368149
 30
0.0
 11
5.75
 21
7.071540326368149
 31
0.0
 67
0
  0
LINE
  5
486
  8
0
 10
5.579745110271205
 20
7.499999999999999
 30
0.0
 11
5.579745110271205
 21
7.071540326368149
 31
0.0
 67
0
  0
LINE
  5
487
  8
0
 10
5.579745110271205
 20
7.499999999999999
 30
0.0
 11
5.25
 21
7.499999999999999
 31
0.0
 67
0
  0
LINE
  5
488
  8
0
 10
8.42025488972871
 20
7.499999999999999
 30
0.0
 11
8.7499999999999
 21
7.499999999999999
 31
0.0
 67
0
  0
LINE
  5
489
  8
0
 10
8.42025488972871
 20
7.071540326368149
 30
0.0
 11
8.42025488972871
 21
7.499999999999999
 31
0.0
 67
0
  0
LINE
  5
48A
  8
0
 10
8.2499999999999
 20
7.071540326368149
 30
0.0
 11
8.42025488972871
 21
7.071540326368149
 31
0.0
 67
0
  0
LINE
  5
48B
  8
0
 10
8.25
 20
2.499999999999995
 30
0.0
 11
8.2499999999999
 21
7.071540326368149
 31
0.0
 67
0
  0
LINE
  5
48C
  8
0
 10
5.75
 20
2.499999999999995
 30
0.0
 11
8.25
 21
2.499999999999995
 31
0.0
 67
0
  0
LINE
  5
48D
  8
0
 10
5.75
 20
7.071540326368149
 30
0.0
 11
5.75
 21
2.499999999999995
 31
0.0
 67
0
  0
LINE
  5
48E
  8
0
 10
2.0797451102712046
 20
7.071540326368149
 30
0.0
 11
2.25
 21
7.071540326368149
 31
0.0
 67
0
  0
LINE
  5
48F
  8
0
 10
2.0797451102712046
 20
7.499999999999999
 30
0.0
 11
2.0797451102712046
 21
7.071540326368149
 31
0.0
 67
0
  0
LINE
  5
490
  8
0
 10
2.0797451102712046
 20
7.499999999999999
 30
0.0
 11
1.75
 21
7.499999999999999
 31
0.0
 67
0
  0
LINE
  5
491
  8
0
 10
4.92025488972871
 20
7.499999999999999
 30
0.0
 11
5.2499999999999005
 21
7.499999999999999
 31
0.0
 67
0
  0
LINE
  5
492
  8
0
 10
4.92025488972871
 20
7.071540326368149
 30
0.0
 11
4.92025488972871
 21
7.499999999999999
 31
0.0
 67
0
  0
LINE
  5
493
  8
0
 10
4.7499999999999005
 20
7.071540326368149
 30
0.0
 11
4.92025488972871
 21
7.071540326368149
 31
0.0
 67
0
  0
LINE
  5
494
  8
0
 10
4.75
 20
2.499999999999995
 30
0.0
 11
4.7499999999999005
 21
7.071540326368149
 31
0.0
 67
0
  0
LINE
  5
495
  8
0
 10
2.25
 20
2.499999999999995
 30
0.0
 11
4.75
 21
2.499999999999995
 31
0.0
 67
0
  0
LINE
  5
496
  8
0
 10
2.25
 20
7.071540326368149
 30
0.0
 11
2.25
 21
2.499999999999995
 31
0.0
 67
0
  0
LINE
  5
497
  8
0
 10
-1.4202548897287954
 20
7.071540326368149
 30
0.0
 11
-1.25
 21
7.071540326368149
 31
0.0
 67
0
  0
LINE
  5
498
  8
0
 10
-1.4202548897287954
 20
7.499999999999999
 30
0.0
 11
-1.4202548897287954
 21
7.071540326368149
 31
0.0
 67
0
  0
LINE
  5
499
  8
0
 10
-1.4202548897287954
 20
7.499999999999999
 30
0.0
 11
-1.75
 21
7.499999999999999
 31
0.0
 67
0
  0
LINE
  5
49A
  8
0
 10
1.4202548897287102
 20
7.499999999999999
 30
0.0
 11
1.7499999999999005
 21
7.499999999999999
 31
0.0
 67
0
  0
LINE
  5
49B
  8
0
 10
1.4202548897287102
 20
7.071540326368149
 30
0.0
 11
1.4202548897287102
 21
7.499999999999999
 31
0.0
 67
0
  0
LINE
  5
49C
  8
0
 10
1.2499999999999005
 20
7.071540326368149
 30
0.0
 11
1.4202548897287102
 21
7.071540326368149
 31
0.0
 67
0
  0
LINE
  5
49D
  8
0
 10
1.25
 20
2.499999999999995
 30
0.0
 11
1.2499999999999005
 21
7.071540326368149
 31
0.0
 67
0
  0
LINE
  5
49E
  8
0
 10
-1.25
 20
2.499999999999995
 30
0.0
 11
1.25
 21
2.499999999999995
 31
0.0
 67
0
  0
LINE
  5
49F
  8
0
 10
-1.25
 20
7.071540326368149
 30
0.0
 11
-1.25
 21
2.499999999999995
 31
0.0
 67
0
  0
LINE
  5
4A0
  8
0
 10
-4.920254889728795
 20
7.071540326368149
 30
0.0
 11
-4.75
 21
7.071540326368149
 31
0.0
 67
0
  0
LINE
  5
4A1
  8
0
 10
-4.920254889728795
 20
7.499999999999999
 30
0.0
 11
-4.920254889728795
 21
7.071540326368149
 31
0.0
 67
0
  0
LINE
  5
4A2
  8
0
 10
-4.920254889728795
 20
7.499999999999999
 30
0.0
 11
-5.25
 21
7.499999999999999
 31
0.0
 67
0
  0
LINE
  5
4A3
  8
0
 10
-2.07974511027129
 20
7.499999999999999
 30
0.0
 11
-1.7500000000000995
 21
7.499999999999999
 31
0.0
 67
0
  0
LINE
  5
4A4
  8
0
 10
-2.07974511027129
 20
7.071540326368149
 30
0.0
 11
-2.07974511027129
 21
7.499999999999999
 31
0.0
 67
0
  0
LINE
  5
4A5
  8
0
 10
-2.2500000000000995
 20
7.071540326368149
 30
0.0
 11
-2.07974511027129
 21
7.071540326368149
 31
0.0
 67
0
  0
LINE
  5
4A6
  8
0
 10
-2.25
 20
2.499999999999995
 30
0.0
 11
-2.2500000000000995
 21
7.071540326368149
 31
0.0
 67
0
  0
LINE
  5
4A7
  8
0
 10
-4.75
 20
2.499999999999995
 30
0.0
 11
-2.25
 21
2.499999999999995
 31
0.0
 67
0
  0
LINE
  5
4A8
  8
0
 10
-4.75
 20
7.071540326368149
 30
0.0
 11
-4.75
 21
2.499999999999995
 31
0.0
 67
0
  0
LINE
  5
4A9
  8
0
 10
-8.420254889728795
 20
7.071540326368155
 30
0.0
 11
-8.25
 21
7.071540326368155
 31
0.0
 67
0
  0
LINE
  5
4AA
  8
0
 10
-8.420254889728795
 20
7.499999999999999
 30
0.0
 11
-8.420254889728795
 21
7.071540326368155
 31
0.0
 67
0
  0
LINE
  5
4AB
  8
0
 10
-8.420254889728795
 20
7.500000000000002
 30
0.0
 11
-8.75
 21
7.499999999999999
 31
0.0
 67
0
  0
LINE
  5
4AC
  8
0
 10
-5.57974511027129
 20
7.500000000000002
 30
0.0
 11
-5.2500000000000995
 21
7.499999999999999
 31
0.0
 67
0
  0
LINE
  5
4AD
  8
0
 10
-5.57974511027129
 20
7.071540326368155
 30
0.0
 11
-5.57974511027129
 21
7.500000000000002
 31
0.0
 67
0
  0
LINE
  5
4AE
  8
0
 10
-5.7500000000000995
 20
7.071540326368155
 30
0.0
 11
-5.57974511027129
 21
7.071540326368155
 31
0.0
 67
0
  0
LINE
  5
4AF
  8
0
 10
-5.75
 20
2.499999999999995
 30
0.0
 11
-5.7500000000000995
 21
7.071540326368155
 31
0.0
 67
0
  0
LINE
  5
4B0
  8
0
 10
-8.25
 20
2.499999999999995
 30
0.0
 11
-5.75
 21
2.499999999999995
 31
0.0
 67
0
  0
LINE
  5
4B1
  8
0
 10
-8.25
 20
7.071540326368155
 30
0.0
 11
-8.25
 21
2.499999999999995
 31
0.0
 67
0
  0
LINE
  5
4B2
  8
0
 10
-11.920254889728682
 20
7.071540326368155
 30
0.0
 11
-11.75
 21
7.071540326368155
 31
0.0
 67
0
  0
LINE
  5
4B3
  8
0
 10
-11.920254889728682
 20
7.499999999999999
 30
0.0
 11
-11.920254889728682
 21
7.071540326368155
 31
0.0
 67
0
  0
LINE
  5
4B4
  8
0
 10
-11.920254889728682
 20
7.500000000000002
 30
0.0
 11
-12.25
 21
7.499999999999999
 31
0.0
 67
0
  0
LINE
  5
4B5
  8
0
 10
-9.07974511027119
 20
7.500000000000002
 30
0.0
 11
-8.7500000000001
 21
7.499999999999999
 31
0.0
 67
0
  0
LINE
  5
4B6
  8
0
 10
-9.07974511027119
 20
7.071540326368155
 30
0.0
 11
-9.07974511027119
 21
7.500000000000002
 31
0.0
 67
0
  0
LINE
  5
4B7
  8
0
 10
-9.2500000000001
 20
7.071540326368155
 30
0.0
 11
-9.07974511027119
 21
7.071540326368155
 31
0.0
 67
0
  0
LINE
  5
4B8
  8
0
 10
-9.25
 20
2.499999999999995
 30
0.0
 11
-9.2500000000001
 21
7.071540326368155
 31
0.0
 67
0
  0
LINE
  5
4B9
  8
0
 10
-11.75
 20
2.499999999999995
 30
0.0
 11
-9.25
 21
2.499999999999995
 31
0.0
 67
0
  0
LINE
  5
4BA
  8
0
 10
-11.75
 20
7.071540326368155
 30
0.0
 11
-11.75
 21
2.499999999999995
 31
0.0
 67
0
  0
LINE
  5
4BB
  8
0
 10
-12.25
 20
7.499999999999999
 30
0.0
 11
-12.5
 21
7.499999999999999
 31
0.0
 67
0
  0
LINE
  5
4BC
  8
0
 10
12.2499999999999
 20
7.499999999999999
 30
0.0
 11
12.5
 21
7.499999999999999
 31
0.0
 67
0
  0
LINE
  5
4BD
  8
0
 10
1.4200000000000017
 20
-10.992851718592753
 30
0.0
 11
1.4200000000000017
 21
-12.499999999999993
 31
0.0
 67
0
  0
LINE
  5
4BE
  8
0
 10
-1.4199999999999875
 20
-10.992851718592753
 30
0.0
 11
-1.4199999999999875
 21
-12.499999999999993
 31
0.0
 67
0
  0
ARC
  5
4BF
  8
0
 10
0.0
 20
-10.992851718592753
 30
0.0
 40
1.419999999999999
 50
0.0
 51
180.0
 67
0
  0
LINE
  5
4C0
  8
0
 10
-5.57974511027129
 20
7.500000000000002
 30
0.0
 11
-5.2500000000000995
 21
7.499999999999999
 31
0.0
 67
0
  0
LINE
  5
4C1
  8
0
 10
-2.07974511027129
 20
7.499999999999999
 30
0.0
 11
-1.7500000000000995
 21
7.499999999999989
 31
0.0
 67
0
  0
LINE
  5
4C2
  8
0
 10
1.4202548897287102
 20
7.499999999999999
 30
0.0
 11
1.7499999999999005
 21
7.499999999999989
 31
0.0
 67
0
  0
LINE
  5
4C3
  8
0
 10
4.92025488972871
 20
7.499999999999999
 30
0.0
 11
5.2499999999999005
 21
7.499999999999989
 31
0.0
 67
0
  0
LINE
  5
4C4
  8
0
 10
8.42025488972871
 20
7.499999999999999
 30
0.0
 11
8.7499999999999
 21
7.499999999999989
 31
0.0
 67
0
  0
LINE
  5
4C5
  8
0
 10
11.92025488972871
 20
7.499999999999999
 30
0.0
 11
12.2499999999999
 21
7.499999999999989
 31
0.0
 67
0
  0
LINE
  5
4C6
  8
0
 10
1.4200000000000017
 20
10.992851718592767
 30
0.0
 11
1.4200000000000017
 21
12.500000000000007
 31
0.0
 67
0
  0
LINE
  5
4C7
  8
0
 10
-1.4199999999999875
 20
10.992851718592767
 30
0.0
 11
-1.4199999999999875
 21
12.500000000000007
 31
0.0
 67
0
  0
ARC
  5
4C8
  8
0
 10
0.0
 20
10.992851718592767
 30
0.0
 40
1.419999999999999
 50
180.0
 51
0.0
 67
0
  0
ENDSEC
  0
EOF
